version 1
nodes
0 "root" -1
end
skeleton
time 0
0 0 0 0 0 0 0
end
triangles
bruh
0  15.219601 21.032141 14.124015  0.297109 0.717284 0.630262  0.375000 0.790780 0
0  -15.150736 21.032139 1.079850  -0.297108 0.717283 -0.630263  0.625000 0.958943 0
0  -15.150737 21.032141 14.124015  -0.297109 0.717284 0.630262  0.375000 0.958943 0
bruh
0  -15.150736 21.032139 1.079850  -0.297108 0.717283 -0.630263  0.833943 0.750000 0
0  15.219601 21.032139 1.079850  0.297109 0.717283 -0.630263  0.665780 0.750000 0
0  15.165165 -22.000004 1.079854  0.297109 -0.717284 -0.630262  0.666082 0.500000 0
bruh
0  -15.150737 21.032141 14.124015  -0.297109 0.717284 0.630262  0.166057 0.750000 0
0  -22.565624 13.617251 14.124015  -0.717284 0.297109 0.630262  0.125000 0.706922 0
0  -15.147727 -22.000002 14.124019  -0.297109 -0.717283 0.630262  0.166073 0.500000 0
bruh
0  15.219601 21.032139 1.079850  0.297109 0.717283 -0.630263  0.625000 0.790780 0
0  22.584591 13.667150 14.124015  0.717284 0.297109 0.630262  0.375000 0.707212 0
0  22.584591 13.667149 1.079851  0.717284 0.297109 -0.630263  0.625000 0.707212 0
bruh
0  22.584591 -14.580574 14.124018  0.717283 -0.297109 0.630263  0.375000 0.543104 0
0  22.584591 13.667149 1.079851  0.717284 0.297109 -0.630263  0.625000 0.707212 0
0  22.584591 13.667150 14.124015  0.717284 0.297109 0.630262  0.375000 0.707212 0
bruh
0  -15.150737 21.032141 14.124015  -0.297109 0.717284 0.630262  0.375000 0.958943 0
0  -22.565624 13.617250 1.079851  -0.717283 0.297109 -0.630262  0.625000 1.000000 0
0  -22.565624 13.617251 14.124015  -0.717284 0.297109 0.630262  0.375000 1.000000 0
bruh
0  -15.147727 -22.000004 1.079854  -0.297109 -0.717284 -0.630262  0.625000 0.291073 0
0  -22.565624 -14.582104 14.124018  -0.717284 -0.297109 0.630262  0.375000 0.206905 0
0  -22.565624 -14.582106 1.079854  -0.717283 -0.297109 -0.630262  0.625000 0.206905 0
bruh
0  -22.565624 13.617251 14.124015  -0.717284 0.297109 0.630262  0.375000 0.043078 0
0  -22.565624 -14.582106 1.079854  -0.717283 -0.297109 -0.630262  0.625000 0.206905 0
0  -22.565624 -14.582104 14.124018  -0.717284 -0.297109 0.630262  0.375000 0.206905 0
bruh
0  22.584591 -14.580576 1.079854  0.717283 -0.297109 -0.630262  0.625000 0.543104 0
0  15.165165 -22.000002 14.124019  0.297109 -0.717283 0.630263  0.375000 0.458918 0
0  15.165165 -22.000004 1.079854  0.297109 -0.717284 -0.630262  0.625000 0.458918 0
bruh
0  -15.147727 -22.000002 14.124019  -0.297109 -0.717283 0.630262  0.375000 0.291073 0
0  15.165165 -22.000004 1.079854  0.297109 -0.717284 -0.630262  0.625000 0.458918 0
0  15.165165 -22.000002 14.124019  0.297109 -0.717283 0.630263  0.375000 0.458918 0
bruh
0  15.219601 21.032141 14.124015  0.297109 0.717284 0.630262  0.375000 0.790780 0
0  15.219601 21.032139 1.079850  0.297109 0.717283 -0.630263  0.625000 0.790780 0
0  -15.150736 21.032139 1.079850  -0.297108 0.717283 -0.630263  0.625000 0.958943 0
bruh
0  22.584591 13.667149 1.079851  0.717284 0.297109 -0.630263  0.625000 0.707212 0
0  22.584591 -14.580576 1.079854  0.717283 -0.297109 -0.630262  0.625000 0.543104 0
0  15.219601 21.032139 1.079850  0.297109 0.717283 -0.630263  0.665780 0.750000 0
bruh
0  22.584591 -14.580576 1.079854  0.717283 -0.297109 -0.630262  0.625000 0.543104 0
0  15.165165 -22.000004 1.079854  0.297109 -0.717284 -0.630262  0.666082 0.500000 0
0  15.219601 21.032139 1.079850  0.297109 0.717283 -0.630263  0.665780 0.750000 0
bruh
0  15.165165 -22.000004 1.079854  0.297109 -0.717284 -0.630262  0.666082 0.500000 0
0  -15.147727 -22.000004 1.079854  -0.297109 -0.717284 -0.630262  0.833927 0.500000 0
0  -15.150736 21.032139 1.079850  -0.297108 0.717283 -0.630263  0.833943 0.750000 0
bruh
0  -15.147727 -22.000004 1.079854  -0.297109 -0.717284 -0.630262  0.833927 0.500000 0
0  -22.565624 -14.582106 1.079854  -0.717283 -0.297109 -0.630262  0.875000 0.543095 0
0  -15.150736 21.032139 1.079850  -0.297108 0.717283 -0.630263  0.833943 0.750000 0
bruh
0  -22.565624 -14.582106 1.079854  -0.717283 -0.297109 -0.630262  0.875000 0.543095 0
0  -22.565624 13.617250 1.079851  -0.717283 0.297109 -0.630262  0.875000 0.706922 0
0  -15.150736 21.032139 1.079850  -0.297108 0.717283 -0.630263  0.833943 0.750000 0
bruh
0  -22.565624 13.617251 14.124015  -0.717284 0.297109 0.630262  0.125000 0.706922 0
0  -22.565624 -14.582104 14.124018  -0.717284 -0.297109 0.630262  0.125000 0.543095 0
0  -15.147727 -22.000002 14.124019  -0.297109 -0.717283 0.630262  0.166073 0.500000 0
bruh
0  -15.147727 -22.000002 14.124019  -0.297109 -0.717283 0.630262  0.166073 0.500000 0
0  15.165165 -22.000002 14.124019  0.297109 -0.717283 0.630263  0.333918 0.500000 0
0  -15.150737 21.032141 14.124015  -0.297109 0.717284 0.630262  0.166057 0.750000 0
bruh
0  15.165165 -22.000002 14.124019  0.297109 -0.717283 0.630263  0.333918 0.500000 0
0  22.584591 -14.580574 14.124018  0.717283 -0.297109 0.630263  0.375000 0.543104 0
0  15.219601 21.032141 14.124015  0.297109 0.717284 0.630262  0.334220 0.750000 0
bruh
0  22.584591 -14.580574 14.124018  0.717283 -0.297109 0.630263  0.375000 0.543104 0
0  22.584591 13.667150 14.124015  0.717284 0.297109 0.630262  0.375000 0.707212 0
0  15.219601 21.032141 14.124015  0.297109 0.717284 0.630262  0.334220 0.750000 0
bruh
0  15.219601 21.032141 14.124015  0.297109 0.717284 0.630262  0.334220 0.750000 0
0  -15.150737 21.032141 14.124015  -0.297109 0.717284 0.630262  0.166057 0.750000 0
0  15.165165 -22.000002 14.124019  0.297109 -0.717283 0.630263  0.333918 0.500000 0
bruh
0  15.219601 21.032139 1.079850  0.297109 0.717283 -0.630263  0.625000 0.790780 0
0  15.219601 21.032141 14.124015  0.297109 0.717284 0.630262  0.375000 0.790780 0
0  22.584591 13.667150 14.124015  0.717284 0.297109 0.630262  0.375000 0.707212 0
bruh
0  22.584591 -14.580574 14.124018  0.717283 -0.297109 0.630263  0.375000 0.543104 0
0  22.584591 -14.580576 1.079854  0.717283 -0.297109 -0.630262  0.625000 0.543104 0
0  22.584591 13.667149 1.079851  0.717284 0.297109 -0.630263  0.625000 0.707212 0
bruh
0  -15.150737 21.032141 14.124015  -0.297109 0.717284 0.630262  0.375000 0.958943 0
0  -15.150736 21.032139 1.079850  -0.297108 0.717283 -0.630263  0.625000 0.958943 0
0  -22.565624 13.617250 1.079851  -0.717283 0.297109 -0.630262  0.625000 1.000000 0
bruh
0  -15.147727 -22.000004 1.079854  -0.297109 -0.717284 -0.630262  0.625000 0.291073 0
0  -15.147727 -22.000002 14.124019  -0.297109 -0.717283 0.630262  0.375000 0.291073 0
0  -22.565624 -14.582104 14.124018  -0.717284 -0.297109 0.630262  0.375000 0.206905 0
bruh
0  -22.565624 13.617251 14.124015  -0.717284 0.297109 0.630262  0.375000 0.043078 0
0  -22.565624 13.617250 1.079851  -0.717283 0.297109 -0.630262  0.625000 0.043078 0
0  -22.565624 -14.582106 1.079854  -0.717283 -0.297109 -0.630262  0.625000 0.206905 0
bruh
0  22.584591 -14.580576 1.079854  0.717283 -0.297109 -0.630262  0.625000 0.543104 0
0  22.584591 -14.580574 14.124018  0.717283 -0.297109 0.630263  0.375000 0.543104 0
0  15.165165 -22.000002 14.124019  0.297109 -0.717283 0.630263  0.375000 0.458918 0
bruh
0  -15.147727 -22.000002 14.124019  -0.297109 -0.717283 0.630262  0.375000 0.291073 0
0  -15.147727 -22.000004 1.079854  -0.297109 -0.717284 -0.630262  0.625000 0.291073 0
0  15.165165 -22.000004 1.079854  0.297109 -0.717284 -0.630262  0.625000 0.458918 0
end
