version 1
nodes
0 "root" -1
end
skeleton
time 0
0 0 0 0 0 0 0
end
triangles
ohmbattery
0  4.596037 -5.000000 0.000000  0.000000 -1.000000 0.000000  0.375000 0.797763 0
0  -3.964963 -5.000000 21.400000  0.000000 -1.000000 0.000000  0.625000 0.938568 0
0  -3.964963 -5.000000 0.000000  0.000000 -1.000000 0.000000  0.375000 0.938569 0
ohmbattery
0  4.596037 -5.000000 21.400000  0.000000 0.000000 1.000000  0.672763 0.750000 0
0  7.500000 -2.096037 21.400000  0.000000 0.000000 1.000000  0.625000 0.677401 0
0  4.602351 5.000000 21.400000  0.000000 0.000000 1.000000  0.672659 0.500000 0
ohmbattery
0  4.596037 -5.000000 0.000000  0.000000 0.000000 -1.000000  0.327237 0.750000 0
0  -3.964963 -5.000000 0.000000  0.000000 0.000000 -1.000000  0.186432 0.750000 0
0  -3.960513 5.000000 0.000000  0.000000 0.000000 -1.000000  0.186505 0.500000 0
ohmbattery
0  7.500000 2.102351 21.400000  0.707107 0.707107 0.000000  0.625000 0.572441 0
0  4.602351 5.000000 0.000000  0.707107 0.707107 0.000000  0.375000 0.452341 0
0  4.602351 5.000000 21.400000  0.707107 0.707107 0.000000  0.625000 0.452341 0
ohmbattery
0  7.500000 2.102351 0.000000  1.000000 0.000000 0.000000  0.375000 0.572441 0
0  7.500000 -2.096037 21.400000  1.000000 0.000000 0.000000  0.625000 0.677401 0
0  7.500000 -2.096037 0.000000  1.000000 0.000000 0.000000  0.375000 0.677401 0
ohmbattery
0  4.596037 -5.000000 21.400000  0.707107 -0.707107 0.000000  0.625000 0.797763 0
0  7.500000 -2.096037 0.000000  0.707107 -0.707107 0.000000  0.375000 0.677401 0
0  7.500000 -2.096037 21.400000  0.707107 -0.707107 0.000000  0.625000 0.677401 0
ohmbattery
0  -3.964963 -5.000000 0.000000  -0.707107 -0.707107 0.000000  0.375000 0.000000 0
0  -7.700000 -1.264964 21.400000  -0.707107 -0.707107 0.000000  0.625000 0.093376 0
0  -7.700000 -1.264963 0.000000  -0.707107 -0.707107 0.000000  0.375000 0.093376 0
ohmbattery
0  -7.700000 -1.264963 0.000000  -1.000000 0.000000 0.000000  0.375000 0.093376 0
0  -7.700000 1.260513 21.400000  -1.000000 0.000000 0.000000  0.625000 0.156513 0
0  -7.700000 1.260513 0.000000  -1.000000 0.000000 0.000000  0.375000 0.156513 0
ohmbattery
0  -3.960513 5.000000 21.400000  -0.707107 0.707107 0.000000  0.625000 0.311505 0
0  -7.700000 1.260513 0.000000  -0.707107 0.707107 0.000000  0.375000 0.156513 0
0  -7.700000 1.260513 21.400000  -0.707107 0.707107 0.000000  0.625000 0.156513 0
ohmbattery
0  -3.960513 5.000000 0.000000  0.000000 1.000000 0.000000  0.375000 0.311505 0
0  4.602351 5.000000 21.400000  0.000000 1.000000 0.000000  0.625000 0.452341 0
0  4.602351 5.000000 0.000000  0.000000 1.000000 0.000000  0.375000 0.452341 0
ohmbattery
0  4.596037 -5.000000 0.000000  0.000000 -1.000000 0.000000  0.375000 0.797763 0
0  4.596037 -5.000000 21.400000  0.000000 -1.000000 0.000000  0.625000 0.797763 0
0  -3.964963 -5.000000 21.400000  0.000000 -1.000000 0.000000  0.625000 0.938568 0
ohmbattery
0  7.500000 -2.096037 21.400000  0.000000 0.000000 1.000000  0.625000 0.677401 0
0  7.500000 2.102351 21.400000  0.000001 0.000000 1.000000  0.625000 0.572441 0
0  4.602351 5.000000 21.400000  0.000000 0.000000 1.000000  0.672659 0.500000 0
ohmbattery
0  4.602351 5.000000 21.400000  0.000000 0.000000 1.000000  0.672659 0.500000 0
0  -3.960513 5.000000 21.400000  0.000000 0.000000 1.000000  0.813495 0.500000 0
0  4.596037 -5.000000 21.400000  0.000000 0.000000 1.000000  0.672763 0.750000 0
ohmbattery
0  -3.960513 5.000000 21.400000  0.000000 0.000000 1.000000  0.813495 0.500000 0
0  -7.700000 1.260513 21.400000  0.000000 0.000000 1.000000  0.875000 0.593487 0
0  -3.964963 -5.000000 21.400000  0.000000 0.000000 1.000000  0.813568 0.750000 0
ohmbattery
0  -7.700000 1.260513 21.400000  0.000000 0.000000 1.000000  0.875000 0.593487 0
0  -7.700000 -1.264964 21.400000  0.000002 0.000000 1.000000  0.875000 0.656624 0
0  -3.964963 -5.000000 21.400000  0.000000 0.000000 1.000000  0.813568 0.750000 0
ohmbattery
0  -3.964963 -5.000000 21.400000  0.000000 0.000000 1.000000  0.813568 0.750000 0
0  4.596037 -5.000000 21.400000  0.000000 0.000000 1.000000  0.672763 0.750000 0
0  -3.960513 5.000000 21.400000  0.000000 0.000000 1.000000  0.813495 0.500000 0
ohmbattery
0  -7.700000 -1.264963 0.000000  0.000000 0.000000 -1.000000  0.125000 0.656624 0
0  -7.700000 1.260513 0.000000  0.000000 0.000000 -1.000000  0.125000 0.593487 0
0  -3.964963 -5.000000 0.000000  0.000000 0.000000 -1.000000  0.186432 0.750000 0
ohmbattery
0  -7.700000 1.260513 0.000000  0.000000 0.000000 -1.000000  0.125000 0.593487 0
0  -3.960513 5.000000 0.000000  0.000000 0.000000 -1.000000  0.186505 0.500000 0
0  -3.964963 -5.000000 0.000000  0.000000 0.000000 -1.000000  0.186432 0.750000 0
ohmbattery
0  -3.960513 5.000000 0.000000  0.000000 0.000000 -1.000000  0.186505 0.500000 0
0  4.602351 5.000000 0.000000  0.000000 0.000000 -1.000000  0.327341 0.500000 0
0  4.596037 -5.000000 0.000000  0.000000 0.000000 -1.000000  0.327237 0.750000 0
ohmbattery
0  4.602351 5.000000 0.000000  0.000000 0.000000 -1.000000  0.327341 0.500000 0
0  7.500000 2.102351 0.000000  0.000000 0.000000 -1.000000  0.375000 0.572441 0
0  7.500000 -2.096037 0.000000  0.000000 0.000000 -1.000000  0.375000 0.677401 0
ohmbattery
0  4.596037 -5.000000 0.000000  0.000000 0.000000 -1.000000  0.327237 0.750000 0
0  4.602351 5.000000 0.000000  0.000000 0.000000 -1.000000  0.327341 0.500000 0
0  7.500000 -2.096037 0.000000  0.000000 0.000000 -1.000000  0.375000 0.677401 0
ohmbattery
0  7.500000 2.102351 21.400000  0.707107 0.707107 0.000000  0.625000 0.572441 0
0  7.500000 2.102351 0.000000  0.707107 0.707107 0.000000  0.375000 0.572441 0
0  4.602351 5.000000 0.000000  0.707107 0.707107 0.000000  0.375000 0.452341 0
ohmbattery
0  7.500000 2.102351 0.000000  1.000000 0.000000 0.000000  0.375000 0.572441 0
0  7.500000 2.102351 21.400000  1.000000 0.000000 0.000000  0.625000 0.572441 0
0  7.500000 -2.096037 21.400000  1.000000 0.000000 0.000000  0.625000 0.677401 0
ohmbattery
0  4.596037 -5.000000 21.400000  0.707107 -0.707107 0.000000  0.625000 0.797763 0
0  4.596037 -5.000000 0.000000  0.707107 -0.707107 0.000000  0.375000 0.797763 0
0  7.500000 -2.096037 0.000000  0.707107 -0.707107 0.000000  0.375000 0.677401 0
ohmbattery
0  -3.964963 -5.000000 0.000000  -0.707107 -0.707107 0.000000  0.375000 0.000000 0
0  -3.964963 -5.000000 21.400000  -0.707107 -0.707107 0.000000  0.625000 0.000000 0
0  -7.700000 -1.264964 21.400000  -0.707107 -0.707107 0.000000  0.625000 0.093376 0
ohmbattery
0  -7.700000 -1.264963 0.000000  -1.000000 0.000000 0.000000  0.375000 0.093376 0
0  -7.700000 -1.264964 21.400000  -1.000000 0.000000 0.000000  0.625000 0.093376 0
0  -7.700000 1.260513 21.400000  -1.000000 0.000000 0.000000  0.625000 0.156513 0
ohmbattery
0  -3.960513 5.000000 21.400000  -0.707107 0.707107 0.000000  0.625000 0.311505 0
0  -3.960513 5.000000 0.000000  -0.707107 0.707107 0.000000  0.375000 0.311505 0
0  -7.700000 1.260513 0.000000  -0.707107 0.707107 0.000000  0.375000 0.156513 0
ohmbattery
0  -3.960513 5.000000 0.000000  0.000000 1.000000 0.000000  0.375000 0.311505 0
0  -3.960513 5.000000 21.400000  0.000000 1.000000 0.000000  0.625000 0.311505 0
0  4.602351 5.000000 21.400000  0.000000 1.000000 0.000000  0.625000 0.452341 0
end
