version 1
nodes
0 "root" -1
end
skeleton
time 0
0 0 0 0 0 0 0
end
triangles
syringe_lod1
0  0.445156 0.220737 1.938341  0.590182 -0.624997 0.510943  0.842849 0.132050 0
0  -0.000003 3.059162 2.315887  -0.001611 0.544500 0.838759  0.862122 0.003915 0
0  -0.445182 0.193188 1.884952  -0.618252 -0.640567 0.455455  0.881370 0.135138 0
syringe_lod1
0  0.445240 1.047640 -2.428555  0.602887 -0.552746 -0.575326  0.708829 0.206282 0
0  0.445257 3.059535 -2.695377  0.693042 -0.056697 -0.718664  0.623800 0.220618 0
0  0.445156 0.220737 1.938341  0.590182 -0.624997 0.510943  0.737360 0.021948 0
syringe_lod1
0  -0.000003 3.059162 2.315887  -0.001611 0.544500 0.838759  0.885474 0.925429 0
0  -0.445083 3.059540 -2.695393  -0.686648 -0.057368 -0.724723  0.668776 0.925429 0
0  -0.445182 0.193188 1.884952  -0.618252 -0.640567 0.455455  0.864894 0.809399 0
syringe_lod1
0  0.445257 3.059535 -2.695377  0.693042 -0.056697 -0.718664  0.623800 0.220618 0
0  -0.000003 3.059162 2.315887  -0.001611 0.544500 0.838759  0.623800 0.003920 0
0  0.445156 0.220737 1.938341  0.590182 -0.624997 0.510943  0.737360 0.021948 0
syringe_lod1
0  0.984847 7.387740 -5.880854  0.704311 0.543188 -0.457048  0.104775 0.298278 0
0  0.934155 4.963264 0.469434  0.842005 0.531590 -0.091873  0.109938 0.067653 0
0  1.381094 3.713177 -3.488726  0.956156 -0.292192 -0.019755  0.156333 0.241198 0
syringe_lod1
0  1.575419 2.512574 1.652136  0.966857 -0.188839 -0.171836  0.534468 0.325738 0
0  1.088614 2.874374 -2.357417  0.613807 -0.789448 -0.003656  0.416310 0.416326 0
0  1.381094 3.713177 -3.488726  0.956156 -0.292192 -0.019755  0.353076 0.413058 0
syringe_lod1
0  1.088614 2.874374 -2.357417  0.613807 -0.789448 -0.003656  0.416310 0.416326 0
0  1.575419 2.512574 1.652136  0.966857 -0.188839 -0.171836  0.534468 0.325738 0
0  1.042123 1.679070 1.514329  0.603057 -0.401710 -0.689167  0.572782 0.345090 0
syringe_lod1
0  1.575419 2.512574 1.652136  0.966857 -0.188839 -0.171836  0.245498 0.064690 0
0  2.029719 2.188513 2.861493  0.868669 0.070980 0.490282  0.250260 0.003906 0
0  1.042123 1.679070 1.514329  0.603057 -0.401710 -0.689167  0.300982 0.040552 0
syringe_lod1
0  -1.992168 -2.943171 2.869672  -0.703659 -0.545416 0.455396  0.218034 0.321143 0
0  1.800511 -2.978409 2.753942  0.640698 -0.562979 0.522073  0.222283 0.238947 0
0  2.029719 2.188513 2.861493  0.868669 0.070980 0.490282  0.444720 0.234145 0
syringe_lod1
0  1.042123 1.679070 1.514329  0.603057 -0.401710 -0.689167  0.300982 0.040552 0
0  2.029719 2.188513 2.861493  0.868669 0.070980 0.490282  0.250260 0.003906 0
0  1.351001 -0.528178 1.626693  0.689260 0.137932 -0.711263  0.367286 0.040552 0
syringe_lod1
0  1.386454 6.539102 2.920640  0.476548 0.646402 0.595874  0.060384 0.008592 0
0  1.489820 3.504361 2.899780  0.659515 0.084091 0.746973  0.202049 0.009598 0
0  1.331874 6.463159 1.896484  0.590039 0.630910 -0.503792  0.063430 0.054419 0
syringe_lod1
0  1.489820 3.504361 2.899780  0.659515 0.084091 0.746973  0.202049 0.009598 0
0  2.029719 2.188513 2.861493  0.868669 0.070980 0.490282  0.250260 0.003906 0
0  1.575419 2.512574 1.652136  0.966857 -0.188839 -0.171836  0.245498 0.064690 0
syringe_lod1
0  -1.266161 -0.566482 1.399515  -0.650866 0.030076 -0.758597  0.261611 0.389603 0
0  1.351001 -0.528178 1.626693  0.689260 0.137932 -0.711263  0.239257 0.345296 0
0  1.028613 -0.774141 0.890970  0.480504 0.349176 -0.804483  0.271620 0.345452 0
syringe_lod1
0  1.800511 -2.978409 2.753942  0.640698 -0.562979 0.522073  0.471620 0.011762 0
0  1.351001 -0.528178 1.626693  0.689260 0.137932 -0.711263  0.367286 0.040552 0
0  2.029719 2.188513 2.861493  0.868669 0.070980 0.490282  0.250260 0.003906 0
syringe_lod1
0  1.489820 3.504361 2.899780  0.659515 0.084091 0.746973  0.202049 0.009598 0
0  1.575419 2.512574 1.652136  0.966857 -0.188839 -0.171836  0.245498 0.064690 0
0  1.331874 6.463159 1.896484  0.590039 0.630910 -0.503792  0.063430 0.054419 0
syringe_lod1
0  1.331874 6.463159 1.896484  0.590039 0.630910 -0.503792  0.237469 0.189831 0
0  0.934155 4.963264 0.469434  0.842005 0.531590 -0.091873  0.308743 0.131186 0
0  0.172796 5.441558 1.064940  -0.075579 0.896413 -0.436728  0.304191 0.174906 0
syringe_lod1
0  0.934155 4.963264 0.469434  0.842005 0.531590 -0.091873  0.308743 0.131186 0
0  1.331874 6.463159 1.896484  0.590039 0.630910 -0.503792  0.237469 0.189831 0
0  1.575419 2.512574 1.652136  0.966857 -0.188839 -0.171836  0.280840 0.056848 0
syringe_lod1
0  1.088614 2.874374 -2.357417  0.613807 -0.789448 -0.003656  0.416310 0.416326 0
0  0.725834 1.684382 -3.093909  0.500721 -0.840937 0.205192  0.412824 0.469741 0
0  1.381094 3.713177 -3.488726  0.956156 -0.292192 -0.019755  0.353076 0.413058 0
syringe_lod1
0  -1.062163 2.840554 -2.344668  -0.669804 -0.717580 0.190896  0.003976 0.115708 0
0  0.725834 1.684382 -3.093909  0.500721 -0.840937 0.205192  0.029285 0.073689 0
0  1.088614 2.874374 -2.357417  0.613807 -0.789448 -0.003656  0.047071 0.116793 0
syringe_lod1
0  0.725834 1.684382 -3.093909  0.500721 -0.840937 0.205192  0.412824 0.469741 0
0  -0.027952 2.635921 -3.846078  -0.128698 -0.752548 -0.645840  0.358337 0.487956 0
0  1.381094 3.713177 -3.488726  0.956156 -0.292192 -0.019755  0.353076 0.413058 0
syringe_lod1
0  1.351001 -0.528178 1.626693  0.689260 0.137932 -0.711263  0.663623 0.379901 0
0  1.212206 -2.965359 0.983049  0.583309 -0.481491 -0.654153  0.747730 0.446557 0
0  1.028613 -0.774141 0.890970  0.480504 0.349176 -0.804483  0.660565 0.412063 0
syringe_lod1
0  1.386454 6.539102 2.920640  0.476548 0.646402 0.595874  0.060384 0.008592 0
0  1.331874 6.463159 1.896484  0.590039 0.630910 -0.503792  0.063430 0.054419 0
0  -1.288592 6.576059 2.753124  -0.486210 0.702526 0.519671  0.003906 0.025685 0
syringe_lod1
0  1.351001 -0.528178 1.626693  0.689260 0.137932 -0.711263  0.501375 0.020482 0
0  1.800511 -2.978409 2.753942  0.640698 -0.562979 0.522073  0.590108 0.004078 0
0  1.212206 -2.965359 0.983049  0.583309 -0.481491 -0.654153  0.588038 0.036655 0
syringe_lod1
0  1.489820 3.504361 2.899780  0.659515 0.084091 0.746973  0.489064 0.255660 0
0  -1.536516 3.505727 2.825865  -0.732894 0.108112 0.671698  0.499564 0.321143 0
0  2.029719 2.188513 2.861493  0.868669 0.070980 0.490282  0.444720 0.234145 0
syringe_lod1
0  1.058581 3.453112 -5.775114  0.606825 -0.794570 -0.020563  0.216109 0.383979 0
0  1.391474 4.207886 -7.037385  0.725294 -0.022200 -0.688082  0.211074 0.423613 0
0  1.381094 3.713177 -3.488726  0.956156 -0.292192 -0.019755  0.203406 0.279764 0
syringe_lod1
0  1.042123 1.679070 1.514329  0.603057 -0.401710 -0.689167  1.003919 0.319270 0
0  -1.266161 -0.566482 1.399515  -0.650866 0.030076 -0.758597  1.048157 0.371052 0
0  -1.219447 1.647474 1.555448  -0.726368 -0.206442 -0.655569  1.047904 0.300320 0
syringe_lod1
0  -1.536516 3.505727 2.825865  -0.732894 0.108112 0.671698  1.279356 0.058042 0
0  -0.901728 4.996193 0.437446  -0.797247 0.601603 -0.049707  1.307760 0.134248 0
0  -1.396879 3.734464 -3.364708  -0.986252 -0.110461 -0.122903  1.496961 0.087154 0
syringe_lod1
0  -0.901728 4.996193 0.437446  -0.797247 0.601603 -0.049707  1.307760 0.134248 0
0  -1.536516 3.505727 2.825865  -0.732894 0.108112 0.671698  1.279356 0.058042 0
0  -1.309291 6.320295 1.852154  -0.776237 0.545587 -0.315896  1.238479 0.186786 0
syringe_lod1
0  -1.288592 6.576059 2.753124  -0.486210 0.702526 0.519671  1.056420 0.010570 0
0  -1.309291 6.320295 1.852154  -0.776237 0.545587 -0.315896  1.068287 0.055871 0
0  -1.536516 3.505727 2.825865  -0.732894 0.108112 0.671698  1.202156 0.009292 0
syringe_lod1
0  -1.293829 -2.995648 1.318507  -0.495035 -0.666380 -0.557564  1.841356 0.728451 0
0  1.800511 -2.978409 2.753942  0.640698 -0.562979 0.522073  1.879700 0.797116 0
0  -1.992168 -2.943171 2.869672  -0.703659 -0.545416 0.455396  1.911357 0.724081 0
syringe_lod1
0  -1.293829 -2.995648 1.318507  -0.495035 -0.666380 -0.557564  1.471401 0.040552 0
0  -1.992168 -2.943171 2.869672  -0.703659 -0.545416 0.455396  1.471413 0.003906 0
0  -1.266161 -0.566482 1.399515  -0.650866 0.030076 -0.758597  1.367286 0.040552 0
syringe_lod1
0  -0.027952 2.635921 -3.846078  -0.128698 -0.752548 -0.645840  1.357907 0.480115 0
0  -1.392585 3.785732 -4.993131  -0.916204 -0.387051 -0.103739  1.292359 0.434013 0
0  1.058581 3.453112 -5.775114  0.606825 -0.794570 -0.020563  1.269475 0.497822 0
syringe_lod1
0  -1.062163 2.840554 -2.344668  -0.669804 -0.717580 0.190896  1.415762 0.417712 0
0  -1.396879 3.734464 -3.364708  -0.986252 -0.110461 -0.122903  1.364338 0.407900 0
0  -0.787191 1.735431 -3.099753  -0.518267 -0.824630 -0.226683  1.414093 0.467567 0
syringe_lod1
0  -1.062163 2.840554 -2.344668  -0.669804 -0.717580 0.190896  1.045843 0.108862 0
0  -0.787191 1.735431 -3.099753  -0.518267 -0.824630 -0.226683  1.030270 0.073125 0
0  0.725834 1.684382 -3.093909  0.500721 -0.840937 0.205192  1.003906 0.064996 0
syringe_lod1
0  -1.396879 3.734464 -3.364708  -0.986252 -0.110461 -0.122903  1.157133 0.240856 0
0  -0.901728 4.996193 0.437446  -0.797247 0.601603 -0.049707  1.106253 0.068470 0
0  -0.967477 7.393085 -5.903878  -0.689712 0.562886 -0.455474  1.106057 0.295000 0
syringe_lod1
0  -0.787191 1.735431 -3.099753  -0.518267 -0.824630 -0.226683  1.414093 0.467567 0
0  -1.396879 3.734464 -3.364708  -0.986252 -0.110461 -0.122903  1.364338 0.407900 0
0  -0.027952 2.635921 -3.846078  -0.128698 -0.752548 -0.645840  1.357907 0.480115 0
syringe_lod1
0  -1.623676 -3.267450 7.394072  -0.212714 -0.713517 0.667568  0.661760 0.851832 0
0  -2.405972 -3.173938 6.912158  -0.783109 -0.521217 0.339224  0.625844 0.861582 0
0  -1.649865 -3.252311 6.676107  -0.087351 -0.994612 -0.055827  0.637322 0.838257 0
syringe_lod1
0  2.232782 2.329105 3.072367  0.787742 0.520019 -0.330216  0.022119 0.763900 0
0  -1.774222 2.058039 2.822282  -0.333811 0.319167 -0.886963  0.193460 0.742554 0
0  -2.239949 2.326915 3.087815  -0.784387 0.559614 -0.267525  0.208704 0.764113 0
syringe_lod1
0  2.388815 -3.066936 6.713387  0.997111 0.072021 0.024147  0.339996 0.727229 0
0  2.208663 2.321889 7.218302  0.374791 0.594518 0.711393  0.362887 0.505644 0
0  2.423227 -3.185422 6.908031  0.785558 -0.548316 0.286789  0.348670 0.732807 0
syringe_lod1
0  -2.186689 2.311126 7.232485  -0.396603 0.776933 0.488959  0.557274 0.505644 0
0  -2.405972 -3.173938 6.912158  -0.783109 -0.521217 0.339224  0.574526 0.732455 0
0  -1.623676 -3.267450 7.394072  -0.212714 -0.713517 0.667568  0.533737 0.733481 0
syringe_lod1
0  2.423227 -3.185422 6.908031  0.785558 -0.548316 0.286789  0.348670 0.732807 0
0  2.208663 2.321889 7.218302  0.374791 0.594518 0.711393  0.362887 0.505644 0
0  1.624646 -3.261487 7.397170  0.276624 -0.640335 0.716554  0.389636 0.733250 0
syringe_lod1
0  1.624646 -3.261487 7.397170  0.276624 -0.640335 0.716554  0.671946 0.310255 0
0  1.653187 -3.248512 6.676989  0.081012 -0.995751 0.043791  0.647355 0.323805 0
0  2.423227 -3.185422 6.908031  0.785558 -0.548316 0.286789  0.636056 0.301309 0
syringe_lod1
0  -1.779030 -2.962210 2.782329  -0.282510 -0.671932 -0.684613  0.661669 0.936669 0
0  -1.642400 -3.245200 3.560968  -0.076631 -0.979433 -0.186653  0.637725 0.951316 0
0  -2.404791 -3.199994 3.373882  -0.694861 -0.657435 -0.291458  0.624882 0.929011 0
syringe_lod1
0  1.777643 -2.966530 2.781105  0.349454 -0.627565 -0.695733  0.050648 0.417104 0
0  2.407995 -3.181849 3.370674  0.699886 -0.560055 -0.443282  0.013661 0.424579 0
0  1.650068 -3.255479 3.571956  -0.027227 -0.992598 -0.118356  0.026456 0.402025 0
syringe_lod1
0  -1.083756 -3.589813 6.966000  -0.656582 -0.122306 0.744272  0.727930 0.357500 0
0  1.134311 -4.335400 6.797347  0.728203 -0.120733 0.674643  0.766243 0.336333 0
0  1.109199 -3.598436 6.964856  0.680239 -0.179236 0.710739  0.766243 0.357500 0
syringe_lod1
0  -1.017836 -4.317099 2.729755  -0.682044 -0.077819 -0.727159  0.970213 0.933655 0
0  1.070649 -3.563617 2.583937  0.653187 -0.127419 -0.746398  0.925998 0.966264 0
0  1.033342 -4.317215 2.758851  0.718177 -0.097182 -0.689041  0.925290 0.933660 0
syringe_lod1
0  -1.083756 -3.589813 6.966000  -0.656582 -0.122306 0.744272  1.881339 0.427069 0
0  1.154688 -2.879706 7.056088  0.678479 -0.161754 0.716591  1.842816 0.463230 0
0  -1.245095 -2.879706 6.945322  -0.772035 -0.075836 0.631040  1.881339 0.463230 0
syringe_lod1
0  1.070649 -3.563617 2.583937  0.653187 -0.127419 -0.746398  1.436561 0.473506 0
0  -1.170326 -2.879704 2.616594  -0.690233 -0.142868 -0.709343  1.485967 0.443934 0
0  1.213889 -2.879702 2.573034  0.739167 -0.109220 -0.664607  1.436563 0.443932 0
syringe_lod1
0  0.890007 -3.275679 2.130602  0.453949 -0.430192 0.780298  0.101681 0.562443 0
0  1.208459 -2.843457 1.545468  0.933681 0.014005 -0.357833  0.114180 0.535180 0
0  0.413188 -2.843458 2.189933  -0.387735 -0.217856 0.895656  0.114180 0.583812 0
syringe_lod1
0  0.129495 -3.132497 1.619243  -0.928675 -0.210359 -0.305470  0.101681 0.612161 0
0  0.413188 -2.843458 2.189933  -0.387735 -0.217856 0.895656  0.114180 0.583812 0
0  0.179006 -2.843458 1.487226  -0.640824 -0.225412 -0.733848  0.114180 0.616539 0
syringe_lod1
0  0.413188 -2.843458 2.189933  -0.387735 -0.217856 0.895656  0.114180 0.583812 0
0  0.129495 -3.132497 1.619243  -0.928675 -0.210359 -0.305470  0.101681 0.612161 0
0  0.890007 -3.275679 2.130602  0.453949 -0.430192 0.780298  0.101681 0.562443 0
syringe_lod1
0  0.129495 -3.132497 1.619243  -0.928675 -0.210359 -0.305470  0.101681 0.612161 0
0  0.179006 -2.843458 1.487226  -0.640824 -0.225412 -0.733848  0.114180 0.616539 0
0  1.208459 -2.843457 1.545468  0.933681 0.014005 -0.357833  0.114180 0.636551 0
syringe_lod1
0  0.129495 -3.132497 1.619243  -0.928675 -0.210359 -0.305470  0.607102 0.925285 0
0  0.968373 -3.260667 1.371377  0.410847 -0.420436 -0.808974  0.589090 0.942613 0
0  0.178667 -3.549064 1.825745  -0.674846 -0.699465 0.235226  0.589090 0.914380 0
syringe_lod1
0  0.178667 -3.549064 1.825745  -0.674846 -0.699465 0.235226  0.478201 0.424393 0
0  0.968373 -3.260667 1.371377  0.410847 -0.420436 -0.808974  0.460661 0.405798 0
0  0.890007 -3.275679 2.130602  0.453949 -0.430192 0.780298  0.484116 0.399715 0
syringe_lod1
0  -0.836535 -3.299134 2.165281  -0.399689 -0.498024 0.769558  1.101681 0.560692 0
0  -1.208458 -2.843458 1.545470  -0.973459 -0.014847 -0.228378  1.114180 0.535180 0
0  -0.947452 -3.132511 1.314161  -0.484320 -0.185742 -0.854946  1.101681 0.522176 0
syringe_lod1
0  -0.123689 -3.132500 1.797114  0.932644 -0.343482 0.110430  1.101681 0.604896 0
0  -0.413186 -2.843458 2.189932  0.344010 0.002795 0.938962  1.114180 0.583812 0
0  -0.836535 -3.299134 2.165281  -0.399689 -0.498024 0.769558  1.101681 0.560692 0
syringe_lod1
0  -0.947452 -3.132511 1.314161  -0.484320 -0.185742 -0.854946  1.101681 0.636551 0
0  -0.179006 -2.843457 1.487226  0.734833 -0.196757 -0.649082  1.114180 0.616539 0
0  -0.123689 -3.132500 1.797114  0.932644 -0.343482 0.110430  1.101681 0.604896 0
syringe_lod1
0  -0.123689 -3.132500 1.797114  0.932644 -0.343482 0.110430  1.607103 0.917909 0
0  -0.545294 -3.549089 1.271198  0.202517 -0.679061 -0.705594  1.589090 0.934330 0
0  -0.947452 -3.132511 1.314161  -0.484320 -0.185742 -0.854946  1.607102 0.942649 0
syringe_lod1
0  -1.811690 2.147592 4.244234  -0.879568 -0.043920 -0.473742  0.834693 0.093137 0
0  -1.634483 3.778246 5.118512  -0.994475 -0.100611 -0.029950  0.774373 0.129721 0
0  -1.413294 3.778246 4.301862  -0.718510 0.228170 -0.657025  0.774373 0.087783 0
syringe_lod1
0  -1.811690 2.147592 4.244234  -0.879568 -0.043920 -0.473742  0.834693 0.093137 0
0  -1.413294 3.778246 4.301862  -0.718510 0.228170 -0.657025  0.774373 0.087783 0
0  -0.813417 3.778246 3.705217  -0.481379 -0.235815 -0.844195  0.774373 0.045844 0
syringe_lod1
0  1.600180 3.181463 4.462856  0.880096 -0.300062 -0.367957  0.766228 0.240793 0
0  1.360300 4.316097 3.353608  0.589004 -0.483078 -0.647850  0.733797 0.274492 0
0  2.178257 4.298368 5.446512  0.984018 0.060242 0.167568  0.733797 0.186954 0
syringe_lod1
0  -0.324455 10.470744 6.432682  -0.130919 0.850660 0.509155  0.991717 0.162051 0
0  1.631031 9.812155 6.475009  0.561591 0.497070 0.661466  0.932124 0.165696 0
0  0.063896 10.809127 4.814444  0.040372 0.984632 -0.169914  0.980340 0.087354 0
syringe_lod1
0  1.360300 4.316097 3.353608  0.589004 -0.483078 -0.647850  0.462850 0.742960 0
0  1.730439 9.929730 4.205376  0.682592 0.623033 -0.381967  0.414633 0.962433 0
0  2.178257 4.298368 5.446512  0.984018 0.060242 0.167568  0.366201 0.742960 0
syringe_lod1
0  1.600180 3.181463 4.462856  0.880096 -0.300062 -0.367957  0.766228 0.240793 0
0  2.178257 4.298368 5.446512  0.984018 0.060242 0.167568  0.733797 0.186954 0
0  1.126177 3.184827 6.398283  0.662568 -0.375965 0.647807  0.766228 0.132588 0
syringe_lod1
0  -0.403227 3.926678 3.248401  -0.360797 -0.180734 -0.914965  0.752872 0.322285 0
0  1.360300 4.316097 3.353608  0.589004 -0.483078 -0.647850  0.733797 0.274492 0
0  1.600180 3.181463 4.462856  0.880096 -0.300062 -0.367957  0.766228 0.240793 0
syringe_lod1
0  0.183013 9.759466 2.975464  -0.073021 0.528677 -0.845677  0.487467 0.962433 0
0  1.360300 4.316097 3.353608  0.589004 -0.483078 -0.647850  0.462850 0.742960 0
0  -0.403227 3.926678 3.248401  -0.360797 -0.180734 -0.914965  0.522491 0.742960 0
syringe_lod1
0  0.063896 10.809127 4.814444  0.040372 0.984632 -0.169914  0.980340 0.087354 0
0  1.631031 9.812155 6.475009  0.561591 0.497070 0.661466  0.932124 0.165696 0
0  1.730439 9.929730 4.205376  0.682592 0.623033 -0.381967  0.923807 0.075207 0
syringe_lod1
0  1.631031 9.812155 6.475009  0.561591 0.497070 0.661466  0.297590 0.962433 0
0  0.898997 4.338508 7.150009  0.104036 -0.141142 0.984508  0.274855 0.742960 0
0  2.178257 4.298368 5.446512  0.984018 0.060242 0.167568  0.366201 0.742960 0
syringe_lod1
0  0.063896 10.809127 4.814444  0.040372 0.984632 -0.169914  1.971659 0.090906 0
0  0.183013 9.759466 2.975464  -0.073021 0.528677 -0.845677  1.972602 0.031366 0
0  -1.770211 9.810654 4.182294  -0.764258 0.367760 -0.529775  1.918306 0.067835 0
syringe_lod1
0  -0.403227 3.926678 3.248401  -0.360797 -0.180734 -0.914965  1.752872 0.310490 0
0  -1.155564 3.183977 3.870083  -0.704707 -0.285681 -0.649442  1.766228 0.244973 0
0  -2.041027 4.315348 4.255979  -0.952099 -0.280799 -0.121075  1.733797 0.232277 0
syringe_lod1
0  -1.756297 3.185310 5.582187  -0.998163 0.002824 0.060524  1.985440 0.784965 0
0  -1.727287 3.952090 6.010452  -0.757472 -0.200890 0.621192  1.962101 0.775791 0
0  -1.155564 3.183977 3.870083  -0.704707 -0.285681 -0.649442  1.983365 0.865652 0
syringe_lod1
0  0.063896 10.809127 4.814444  0.040372 0.984632 -0.169914  1.971659 0.090906 0
0  -1.871180 9.861961 5.795325  -0.866684 0.379235 0.324096  1.915529 0.138927 0
0  -0.324455 10.470744 6.432682  -0.130919 0.850660 0.509155  1.982148 0.159550 0
syringe_lod1
0  -0.528340 3.188879 6.736871  -0.181946 -0.230640 0.955877  1.985264 0.707894 0
0  -1.727287 3.952090 6.010452  -0.757472 -0.200890 0.621192  1.962101 0.775791 0
0  -1.756297 3.185310 5.582187  -0.998163 0.002824 0.060524  1.985440 0.784965 0
syringe_lod1
0  -1.727287 3.952090 6.010452  -0.757472 -0.200890 0.621192  1.331212 0.742960 0
0  -1.871180 9.861961 5.795325  -0.866684 0.379235 0.324096  1.352899 0.962433 0
0  -2.041027 4.315348 4.255979  -0.952099 -0.280799 -0.121075  1.416241 0.742960 0
syringe_lod1
0  2.134453 -7.850324 7.041305  0.581110 -0.438863 0.685354  0.568644 0.919024 0
0  2.274254 -7.534631 5.919336  0.131952 0.986615 0.095810  0.556006 0.959821 0
0  2.022631 -7.585806 6.960188  0.233674 0.871966 0.430200  0.556006 0.918103 0
syringe_lod1
0  0.819081 -3.407455 1.621074  0.934639 -0.011654 -0.355407  0.914192 0.478928 0
0  0.787942 -6.300522 1.634053  -0.005758 -0.106963 -0.994246  0.920313 0.353764 0
0  0.547035 -3.407455 1.549857  -0.709482 0.017910 -0.704496  0.926633 0.478928 0
syringe_lod1
0  0.645410 -3.407604 1.881120  -0.137114 0.034224 0.989964  0.897182 0.478928 0
0  0.787942 -6.300522 1.634053  -0.005758 -0.106963 -0.994246  0.920313 0.353764 0
0  0.819081 -3.407455 1.621074  0.934639 -0.011654 -0.355407  0.914192 0.478928 0
syringe_lod1
0  2.194638 -7.512448 2.268162  0.253319 0.848534 0.464563  0.901702 0.254169 0
0  2.266145 -7.323905 1.744838  0.520808 -0.401629 -0.753295  0.919519 0.273977 0
0  1.941616 -6.492030 1.887870  0.605289 0.789875 0.098602  0.907209 0.304059 0
syringe_lod1
0  2.266145 -7.323905 1.744838  0.520808 -0.401629 -0.753295  0.919519 0.273977 0
0  0.787942 -6.300522 1.634053  -0.005758 -0.106963 -0.994246  0.920313 0.353764 0
0  1.941616 -6.492030 1.887870  0.605289 0.789875 0.098602  0.907209 0.304059 0
syringe_lod1
0  1.846657 -6.832944 1.921151  -0.504647 -0.268603 0.820477  0.939123 0.297442 0
0  0.787942 -6.300522 1.634053  -0.005758 -0.106963 -0.994246  0.920313 0.353764 0
0  2.266145 -7.323905 1.744838  0.520808 -0.401629 -0.753295  0.919519 0.273977 0
syringe_lod1
0  1.941616 -6.492030 1.887870  0.605289 0.789875 0.098602  0.907209 0.304059 0
0  0.787942 -6.300522 1.634053  -0.005758 -0.106963 -0.994246  0.920313 0.353764 0
0  0.792361 -6.204462 1.954340  0.289039 0.230262 0.929213  0.901702 0.354822 0
syringe_lod1
0  1.846657 -6.832944 1.921151  -0.504647 -0.268603 0.820477  0.889259 0.297442 0
0  0.792361 -6.204462 1.954340  0.289039 0.230262 0.929213  0.901702 0.354822 0
0  0.539309 -6.378950 1.858164  -0.815160 -0.554058 0.168918  0.889259 0.355865 0
syringe_lod1
0  2.134453 -7.850324 7.041305  0.581110 -0.438863 0.685354  0.568644 0.919024 0
0  -1.908053 -7.966896 6.820211  0.167914 -0.985544 -0.022548  0.581099 0.834121 0
0  1.900245 -7.818483 6.731368  -0.582022 -0.665901 -0.466719  0.581099 0.920635 0
syringe_lod1
0  2.013318 -8.067568 2.965261  -0.421048 -0.853651 -0.306591  0.889259 0.248314 0
0  2.194638 -7.512448 2.268162  0.253319 0.848534 0.464563  0.901702 0.254169 0
0  1.846657 -6.832944 1.921151  -0.504647 -0.268603 0.820477  0.889259 0.297442 0
syringe_lod1
0  2.194638 -7.512448 2.268162  0.253319 0.848534 0.464563  0.901702 0.254169 0
0  2.524979 -7.788671 3.159782  0.991601 -0.006093 -0.129190  0.914192 0.214217 0
0  2.266145 -7.323905 1.744838  0.520808 -0.401629 -0.753295  0.919519 0.273977 0
syringe_lod1
0  2.013318 -8.067568 2.965261  -0.421048 -0.853651 -0.306591  0.927447 0.218682 0
0  1.846657 -6.832944 1.921151  -0.504647 -0.268603 0.820477  0.939123 0.297442 0
0  2.266145 -7.323905 1.744838  0.520808 -0.401629 -0.753295  0.919519 0.273977 0
syringe_lod1
0  1.841972 -7.863258 5.929460  -0.925748 -0.371376 0.071207  0.537555 0.959821 0
0  2.022631 -7.585806 6.960188  0.233674 0.871966 0.430200  0.556006 0.918103 0
0  2.274254 -7.534631 5.919336  0.131952 0.986615 0.095810  0.556006 0.959821 0
syringe_lod1
0  1.841972 -7.863258 5.929460  -0.925748 -0.371376 0.071207  0.056285 0.328022 0
0  2.013318 -8.067568 2.965261  -0.421048 -0.853651 -0.306591  0.178684 0.343630 0
0  2.572607 -7.819550 5.856722  0.932828 -0.307377 0.188017  0.057328 0.358888 0
syringe_lod1
0  2.524979 -7.788671 3.159782  0.991601 -0.006093 -0.129190  0.382192 0.168086 0
0  2.274254 -7.534631 5.919336  0.131952 0.986615 0.095810  0.490689 0.163899 0
0  2.572607 -7.819550 5.856722  0.932828 -0.307377 0.188017  0.471768 0.192042 0
syringe_lod1
0  0.547035 -3.407455 1.549857  -0.709482 0.017910 -0.704496  0.926633 0.478928 0
0  0.539309 -6.378950 1.858164  -0.815160 -0.554058 0.168918  0.939123 0.355865 0
0  0.645410 -3.407604 1.881120  -0.137114 0.034224 0.989964  0.939123 0.478928 0
syringe_lod1
0  1.900245 -7.818483 6.731368  -0.582022 -0.665901 -0.466719  0.581099 0.920635 0
0  2.572607 -7.819550 5.856722  0.932828 -0.307377 0.188017  0.568644 0.959821 0
0  2.134453 -7.850324 7.041305  0.581110 -0.438863 0.685354  0.568644 0.919024 0
syringe_lod1
0  -1.841970 -7.863411 5.929027  0.936470 -0.345116 -0.062596  1.537547 0.959821 0
0  -1.949141 -7.643018 6.788779  0.163571 0.973461 0.160056  1.549414 0.920654 0
0  -1.908053 -7.966896 6.820211  0.167914 -0.985544 -0.022548  1.530914 0.918144 0
syringe_lod1
0  -2.274292 -7.534602 5.919302  -0.132177 0.986535 0.096319  1.556006 0.959821 0
0  -2.155613 -7.843091 6.996919  -0.606390 -0.098850 0.788999  1.568644 0.920427 0
0  -1.949141 -7.643018 6.788779  0.163571 0.973461 0.160056  1.549414 0.920654 0
syringe_lod1
0  -0.789972 -6.202654 1.953612  -0.352277 0.192667 0.915850  1.901702 0.354963 0
0  -0.482436 -3.407954 1.722186  0.989684 0.009003 -0.142983  1.889259 0.478928 0
0  -0.747863 -3.407455 1.893120  -0.369200 0.002072 0.929348  1.901702 0.478928 0
syringe_lod1
0  -0.788442 -6.300806 1.631282  -0.084233 -0.124649 -0.988619  1.920327 0.353765 0
0  -0.747863 -3.407455 1.893120  -0.369200 0.002072 0.929348  1.901702 0.478928 0
0  -0.819081 -3.407455 1.621074  -0.696953 -0.009910 -0.717048  1.914192 0.478928 0
syringe_lod1
0  -0.788442 -6.300806 1.631282  -0.084233 -0.124649 -0.988619  1.920327 0.353765 0
0  -2.266425 -7.323902 1.744881  -0.320428 -0.388437 -0.863969  1.919514 0.273974 0
0  -2.229010 -6.932431 1.919822  -0.645918 0.756747 -0.100619  1.904796 0.282408 0
syringe_lod1
0  -1.846626 -6.832992 1.920407  0.354131 -0.320079 0.878715  1.939123 0.297437 0
0  -0.788442 -6.300806 1.631282  -0.084233 -0.124649 -0.988619  1.920327 0.353765 0
0  -0.539306 -6.378920 1.858128  0.825327 -0.538332 0.170395  1.939123 0.355867 0
syringe_lod1
0  -0.789972 -6.202654 1.953612  -0.352277 0.192667 0.915850  1.901702 0.354963 0
0  -1.846626 -6.832992 1.920407  0.354131 -0.320079 0.878715  1.889259 0.297437 0
0  -0.539306 -6.378920 1.858128  0.825327 -0.538332 0.170395  1.889259 0.355867 0
syringe_lod1
0  -1.908053 -7.966896 6.820211  0.167914 -0.985544 -0.022548  1.581099 0.918144 0
0  2.134453 -7.850324 7.041305  0.581110 -0.438863 0.685354  1.568644 0.834121 0
0  -2.155613 -7.843091 6.996919  -0.606390 -0.098850 0.788999  1.568644 0.920427 0
syringe_lod1
0  -2.155613 -7.843091 6.996919  -0.606390 -0.098850 0.788999  1.568644 0.920427 0
0  2.022631 -7.585806 6.960188  0.233674 0.871966 0.430200  1.556006 0.834121 0
0  -1.949141 -7.643018 6.788779  0.163571 0.973461 0.160056  1.549414 0.920654 0
syringe_lod1
0  -1.949141 -7.643018 6.788779  0.163571 0.973461 0.160056  1.549414 0.920654 0
0  2.022631 -7.585806 6.960188  0.233674 0.871966 0.430200  1.556006 0.834121 0
0  1.900245 -7.818483 6.731368  -0.582022 -0.665901 -0.466719  1.543551 0.834121 0
syringe_lod1
0  -2.229010 -6.932431 1.919822  -0.645918 0.756747 -0.100619  1.904796 0.282408 0
0  -2.013324 -8.067552 2.965326  0.417335 -0.861613 -0.288884  1.889259 0.248314 0
0  -1.846626 -6.832992 1.920407  0.354131 -0.320079 0.878715  1.889259 0.297437 0
syringe_lod1
0  -2.229010 -6.932431 1.919822  -0.645918 0.756747 -0.100619  1.904796 0.282408 0
0  -2.525030 -7.787830 3.159437  -0.997441 -0.066208 -0.026970  1.914192 0.214217 0
0  -1.964502 -7.529431 3.073889  0.692868 0.717323 0.073354  1.896329 0.214217 0
syringe_lod1
0  -1.846626 -6.832992 1.920407  0.354131 -0.320079 0.878715  1.939123 0.297437 0
0  -2.013324 -8.067552 2.965326  0.417335 -0.861613 -0.288884  1.927447 0.218680 0
0  -2.266425 -7.323902 1.744881  -0.320428 -0.388437 -0.863969  1.919514 0.273974 0
syringe_lod1
0  -2.274292 -7.534602 5.919302  -0.132177 0.986535 0.096319  1.056944 0.377984 0
0  -1.964502 -7.529431 3.073889  0.692868 0.717323 0.073354  1.178643 0.392199 0
0  -2.525030 -7.787830 3.159437  -0.997441 -0.066208 -0.026970  1.177699 0.371017 0
syringe_lod1
0  -2.013324 -8.067552 2.965326  0.417335 -0.861613 -0.288884  1.178684 0.343630 0
0  -1.841970 -7.863411 5.929027  0.936470 -0.345116 -0.062596  1.056285 0.328036 0
0  -2.572711 -7.819451 5.856854  -0.945686 -0.293695 0.139359  1.057320 0.358889 0
syringe_lod1
0  -1.841970 -7.863411 5.929027  0.936470 -0.345116 -0.062596  1.056285 0.328036 0
0  -2.013324 -8.067552 2.965326  0.417335 -0.861613 -0.288884  1.178684 0.343630 0
0  -1.964502 -7.529431 3.073889  0.692868 0.717323 0.073354  1.178720 0.322337 0
syringe_lod1
0  -1.908053 -7.966896 6.820211  0.167914 -0.985544 -0.022548  1.581099 0.918144 0
0  -2.572711 -7.819451 5.856854  -0.945686 -0.293695 0.139359  1.568644 0.959821 0
0  -1.841970 -7.863411 5.929027  0.936470 -0.345116 -0.062596  1.581099 0.959821 0
syringe_lod1
0  0.415202 -6.310883 3.956498  0.393136 -0.774695 0.495268  0.093835 0.622835 0
0  0.865517 -5.960884 3.915409  0.613605 -0.767871 0.184019  0.085060 0.634767 0
0  -0.820824 -5.961208 4.129755  -0.660083 -0.642964 0.388444  0.085059 0.566335 0
syringe_lod1
0  -0.820824 -5.961208 4.129755  -0.660083 -0.642964 0.388444  0.085059 0.566335 0
0  -0.367521 -6.322388 3.949272  -0.286413 -0.865143 0.411699  0.093835 0.566806 0
0  0.415202 -6.310883 3.956498  0.393136 -0.774695 0.495268  0.093835 0.622835 0
syringe_lod1
0  0.050128 -6.268886 4.982613  0.033645 -0.260960 -0.964763  0.073479 0.677365 0
0  -0.445549 -6.353734 5.582238  -0.434819 -0.888237 0.148218  0.068438 0.634909 0
0  -0.901872 -5.960441 5.462985  -0.855910 -0.499771 -0.132840  0.077213 0.634323 0
syringe_lod1
0  -0.445549 -6.353734 5.582238  -0.434819 -0.888237 0.148218  0.068438 0.634909 0
0  0.114078 -5.968655 6.334867  0.046045 -0.789281 0.612303  0.075373 0.588168 0
0  -0.901872 -5.960441 5.462985  -0.855910 -0.499771 -0.132840  0.077213 0.634323 0
syringe_lod1
0  0.114078 -5.968655 6.334867  0.046045 -0.789281 0.612303  0.131562 0.585856 0
0  -0.445549 -6.353734 5.582238  -0.434819 -0.888237 0.148218  0.127333 0.603854 0
0  0.441057 -6.317284 5.650262  0.421101 -0.881064 0.215409  0.127101 0.563913 0
syringe_lod1
0  -0.222203 -6.330772 3.291874  -0.403333 -0.713384 -0.573067  0.744572 0.472996 0
0  0.415202 -6.310883 3.956498  0.393136 -0.774695 0.495268  0.731304 0.483463 0
0  -0.367521 -6.322388 3.949272  -0.286413 -0.865143 0.411699  0.727231 0.467381 0
syringe_lod1
0  0.415202 -6.310883 3.956498  0.393136 -0.774695 0.495268  0.904503 0.860498 0
0  -0.222203 -6.330772 3.291874  -0.403333 -0.713384 -0.573067  0.902874 0.812672 0
0  0.156700 -5.964534 2.869942  0.124262 -0.768201 -0.628033  0.907896 0.826483 0
syringe_lod1
0  0.050128 -6.268886 4.982613  0.033645 -0.260960 -0.964763  0.866239 0.482764 0
0  0.441057 -6.317284 5.650262  0.421101 -0.881064 0.215409  0.856617 0.493563 0
0  -0.445549 -6.353734 5.582238  -0.434819 -0.888237 0.148218  0.851018 0.476823 0
syringe_lod1
0  -0.445099 1.068846 -2.452091  -0.589173 -0.544216 -0.597246  0.881355 0.331582 0
0  0.445156 0.220737 1.938341  0.590182 -0.624997 0.510943  0.842849 0.132050 0
0  -0.445182 0.193188 1.884952  -0.618252 -0.640567 0.455455  0.881370 0.135138 0
syringe_lod1
0  -0.445099 1.068846 -2.452091  -0.589173 -0.544216 -0.597246  0.682271 0.841339 0
0  -0.445182 0.193188 1.884952  -0.618252 -0.640567 0.455455  0.864894 0.809399 0
0  -0.445083 3.059540 -2.695393  -0.686648 -0.057368 -0.724723  0.668776 0.925429 0
syringe_lod1
0  0.984847 7.387740 -5.880854  0.704311 0.543188 -0.457048  0.034906 0.460168 0
0  0.019500 3.844382 -7.585466  -0.030946 -0.476594 -0.878578  0.192899 0.497822 0
0  0.005379 7.886476 -5.940091  0.002225 0.930077 -0.367358  0.022647 0.497822 0
syringe_lod1
0  1.351001 -0.528178 1.626693  0.689260 0.137932 -0.711263  0.048142 0.371052 0
0  -1.266161 -0.566482 1.399515  -0.650866 0.030076 -0.758597  0.003906 0.371041 0
0  1.042123 1.679070 1.514329  0.603057 -0.401710 -0.689167  0.048302 0.291800 0
syringe_lod1
0  1.575419 2.512574 1.652136  0.966857 -0.188839 -0.171836  0.280840 0.056848 0
0  1.381094 3.713177 -3.488726  0.956156 -0.292192 -0.019755  0.481733 0.075955 0
0  0.934155 4.963264 0.469434  0.842005 0.531590 -0.091873  0.308743 0.131186 0
syringe_lod1
0  -0.027952 2.635921 -3.846078  -0.128698 -0.752548 -0.645840  0.358337 0.487956 0
0  1.058581 3.453112 -5.775114  0.606825 -0.794570 -0.020563  0.257462 0.452163 0
0  1.381094 3.713177 -3.488726  0.956156 -0.292192 -0.019755  0.353076 0.413058 0
syringe_lod1
0  0.984847 7.387740 -5.880854  0.704311 0.543188 -0.457048  0.581062 0.199639 0
0  1.381094 3.713177 -3.488726  0.956156 -0.292192 -0.019755  0.481733 0.075955 0
0  1.391474 4.207886 -7.037385  0.725294 -0.022200 -0.688082  0.603692 0.061274 0
syringe_lod1
0  1.391474 4.207886 -7.037385  0.725294 -0.022200 -0.688082  0.185762 0.437727 0
0  1.058581 3.453112 -5.775114  0.606825 -0.794570 -0.020563  0.257462 0.452163 0
0  0.019500 3.844382 -7.585466  -0.030946 -0.476594 -0.878578  0.192899 0.497822 0
syringe_lod1
0  0.172796 5.441558 1.064940  -0.075579 0.896413 -0.436728  0.063625 0.063215 0
0  0.984847 7.387740 -5.880854  0.704311 0.543188 -0.457048  0.104775 0.298278 0
0  0.005379 7.886476 -5.940091  0.002225 0.930077 -0.367358  0.059898 0.311871 0
syringe_lod1
0  -1.536516 3.505727 2.825865  -0.732894 0.108112 0.671698  0.499564 0.321143 0
0  -1.992168 -2.943171 2.869672  -0.703659 -0.545416 0.455396  0.218034 0.321143 0
0  2.029719 2.188513 2.861493  0.868669 0.070980 0.490282  0.444720 0.234145 0
syringe_lod1
0  1.489820 3.504361 2.899780  0.659515 0.084091 0.746973  0.632794 0.428354 0
0  -1.288592 6.576059 2.753124  -0.486210 0.702526 0.519671  0.498648 0.379851 0
0  -1.536516 3.505727 2.825865  -0.732894 0.108112 0.671698  0.633033 0.379851 0
syringe_lod1
0  0.172796 5.441558 1.064940  -0.075579 0.896413 -0.436728  0.304191 0.174906 0
0  -1.309291 6.320295 1.852154  -0.776237 0.545587 -0.315896  0.274699 0.226324 0
0  1.331874 6.463159 1.896484  0.590039 0.630910 -0.503792  0.237469 0.189831 0
syringe_lod1
0  1.042123 1.679070 1.514329  0.603057 -0.401710 -0.689167  1.003942 0.225026 0
0  -1.062163 2.840554 -2.344668  -0.669804 -0.717580 0.190896  1.048379 0.124010 0
0  1.088614 2.874374 -2.357417  0.613807 -0.789448 -0.003656  1.003962 0.145875 0
syringe_lod1
0  1.212206 -2.965359 0.983049  0.583309 -0.481491 -0.654153  1.366042 0.389603 0
0  -1.266161 -0.566482 1.399515  -0.650866 0.030076 -0.758597  1.245064 0.345361 0
0  1.028613 -0.774141 0.890970  0.480504 0.349176 -0.804483  1.277749 0.389603 0
syringe_lod1
0  -1.396879 3.734464 -3.364708  -0.986252 -0.110461 -0.122903  1.496961 0.087154 0
0  -1.391119 4.018207 -7.014406  -0.540451 -0.429413 -0.723545  1.603923 0.061101 0
0  -1.392585 3.785732 -4.993131  -0.916204 -0.387051 -0.103739  1.542051 0.059645 0
syringe_lod1
0  -1.391119 4.018207 -7.014406  -0.540451 -0.429413 -0.723545  1.603923 0.061101 0
0  -1.396879 3.734464 -3.364708  -0.986252 -0.110461 -0.122903  1.496961 0.087154 0
0  -0.967477 7.393085 -5.903878  -0.689712 0.562886 -0.455474  1.581815 0.199883 0
syringe_lod1
0  -1.219447 1.647474 1.555448  -0.726368 -0.206442 -0.655569  1.572244 0.335380 0
0  -1.396879 3.734464 -3.364708  -0.986252 -0.110461 -0.122903  1.364338 0.407900 0
0  -1.062163 2.840554 -2.344668  -0.669804 -0.717580 0.190896  1.415762 0.417712 0
syringe_lod1
0  -1.219447 1.647474 1.555448  -0.726368 -0.206442 -0.655569  1.263200 0.048616 0
0  -1.992168 -2.943171 2.869672  -0.703659 -0.545416 0.455396  1.471413 0.003906 0
0  -2.037566 2.129035 2.861254  -0.859823 0.173541 0.480197  1.251646 0.003906 0
syringe_lod1
0  -0.967477 7.393085 -5.903878  -0.689712 0.562886 -0.455474  1.034616 0.459954 0
0  0.019500 3.844382 -7.585466  -0.030946 -0.476594 -0.878578  1.192899 0.497822 0
0  -1.391119 4.018207 -7.014406  -0.540451 -0.429413 -0.723545  1.193338 0.438511 0
syringe_lod1
0  -1.536516 3.505727 2.825865  -0.732894 0.108112 0.671698  1.202156 0.009292 0
0  -1.219447 1.647474 1.555448  -0.726368 -0.206442 -0.655569  1.263200 0.048616 0
0  -2.037566 2.129035 2.861254  -0.859823 0.173541 0.480197  1.251646 0.003906 0
syringe_lod1
0  -1.536516 3.505727 2.825865  -0.732894 0.108112 0.671698  1.202156 0.009292 0
0  -1.396879 3.734464 -3.364708  -0.986252 -0.110461 -0.122903  1.201130 0.271766 0
0  -1.219447 1.647474 1.555448  -0.726368 -0.206442 -0.655569  1.263200 0.048616 0
syringe_lod1
0  0.172796 5.441558 1.064940  -0.075579 0.896413 -0.436728  1.311414 0.182481 0
0  -0.901728 4.996193 0.437446  -0.797247 0.601603 -0.049707  1.307760 0.134248 0
0  -1.309291 6.320295 1.852154  -0.776237 0.545587 -0.315896  1.238479 0.186786 0
syringe_lod1
0  0.172796 5.441558 1.064940  -0.075579 0.896413 -0.436728  1.063625 0.063215 0
0  -0.967477 7.393085 -5.903878  -0.689712 0.562886 -0.455474  1.106057 0.295000 0
0  -0.901728 4.996193 0.437446  -0.797247 0.601603 -0.049707  1.106253 0.068470 0
syringe_lod1
0  -0.027952 2.635921 -3.846078  -0.128698 -0.752548 -0.645840  1.357907 0.480115 0
0  -1.396879 3.734464 -3.364708  -0.986252 -0.110461 -0.122903  1.364338 0.407900 0
0  -1.392585 3.785732 -4.993131  -0.916204 -0.387051 -0.103739  1.292359 0.434013 0
syringe_lod1
0  -2.037566 2.129035 2.861254  -0.859823 0.173541 0.480197  1.444739 0.234145 0
0  -1.992168 -2.943171 2.869672  -0.703659 -0.545416 0.455396  1.222235 0.238979 0
0  -1.536516 3.505727 2.825865  -0.732894 0.108112 0.671698  1.493433 0.262762 0
syringe_lod1
0  1.058581 3.453112 -5.775114  0.606825 -0.794570 -0.020563  1.269475 0.497822 0
0  -1.391119 4.018207 -7.014406  -0.540451 -0.429413 -0.723545  1.193338 0.438511 0
0  0.019500 3.844382 -7.585466  -0.030946 -0.476594 -0.878578  1.192899 0.497822 0
syringe_lod1
0  -1.623676 -3.267450 7.394072  -0.212714 -0.713517 0.667568  0.807529 0.712292 0
0  1.653187 -3.248512 6.676989  0.081012 -0.995751 0.043791  0.951032 0.682582 0
0  1.624646 -3.261487 7.397170  0.276624 -0.640335 0.716554  0.947992 0.712388 0
syringe_lod1
0  1.212206 -2.965359 0.983049  0.583309 -0.481491 -0.654153  1.808594 0.771438 0
0  1.800511 -2.978409 2.753942  0.640698 -0.562979 0.522073  1.879700 0.797116 0
0  -1.293829 -2.995648 1.318507  -0.495035 -0.666380 -0.557564  1.841356 0.728451 0
syringe_lod1
0  -0.027952 2.635921 -3.846078  -0.128698 -0.752548 -0.645840  1.357907 0.480115 0
0  0.725834 1.684382 -3.093909  0.500721 -0.840937 0.205192  1.408244 0.497822 0
0  -0.787191 1.735431 -3.099753  -0.518267 -0.824630 -0.226683  1.414093 0.467567 0
syringe_lod1
0  1.331874 6.463159 1.896484  0.590039 0.630910 -0.503792  1.004395 0.042041 0
0  -1.309291 6.320295 1.852154  -0.776237 0.545587 -0.315896  1.068287 0.055871 0
0  -1.288592 6.576059 2.753124  -0.486210 0.702526 0.519671  1.056420 0.010570 0
syringe_lod1
0  -1.649865 -3.252311 6.676107  -0.087351 -0.994612 -0.055827  0.805055 0.682806 0
0  -2.404791 -3.199994 3.373882  -0.694861 -0.657435 -0.291458  0.776591 0.549328 0
0  -1.642400 -3.245200 3.560968  -0.076631 -0.979433 -0.186653  0.805144 0.546255 0
syringe_lod1
0  1.777643 -2.966530 2.781105  0.349454 -0.627565 -0.695733  0.156926 0.722459 0
0  2.232782 2.329105 3.072367  0.787742 0.520019 -0.330216  0.180472 0.505644 0
0  2.407995 -3.181849 3.370674  0.699886 -0.560055 -0.443282  0.194644 0.732812 0
syringe_lod1
0  -1.649865 -3.252311 6.676107  -0.087351 -0.994612 -0.055827  0.805055 0.682806 0
0  1.650068 -3.255479 3.571956  -0.027227 -0.992598 -0.118356  0.950455 0.546749 0
0  1.653187 -3.248512 6.676989  0.081012 -0.995751 0.043791  0.951032 0.682582 0
syringe_lod1
0  2.407995 -3.181849 3.370674  0.699886 -0.560055 -0.443282  0.194644 0.732812 0
0  2.388815 -3.066936 6.713387  0.997111 0.072021 0.024147  0.339996 0.727229 0
0  2.423227 -3.185422 6.908031  0.785558 -0.548316 0.286789  0.348670 0.732807 0
syringe_lod1
0  2.232782 2.329105 3.072367  0.787742 0.520019 -0.330216  0.022119 0.763900 0
0  1.774221 2.058039 2.822282  0.327672 0.303979 -0.894555  0.036706 0.742554 0
0  -1.774222 2.058039 2.822282  -0.333811 0.319167 -0.886963  0.193460 0.742554 0
syringe_lod1
0  -2.405972 -3.173938 6.912158  -0.783109 -0.521217 0.339224  0.574526 0.732455 0
0  -2.239949 2.326915 3.087815  -0.784387 0.559614 -0.267525  0.742220 0.505644 0
0  -2.404791 -3.199994 3.373882  -0.694861 -0.657435 -0.291458  0.728681 0.732971 0
syringe_lod1
0  1.624646 -3.261487 7.397170  0.276624 -0.640335 0.716554  0.389636 0.733250 0
0  -2.186689 2.311126 7.232485  -0.396603 0.776933 0.488959  0.557274 0.505644 0
0  -1.623676 -3.267450 7.394072  -0.212714 -0.713517 0.667568  0.533737 0.733481 0
syringe_lod1
0  -2.239949 2.326915 3.087815  -0.784387 0.559614 -0.267525  0.742220 0.505644 0
0  -1.779030 -2.962210 2.782329  -0.282510 -0.671932 -0.684613  0.766163 0.722261 0
0  -2.404791 -3.199994 3.373882  -0.694861 -0.657435 -0.291458  0.728681 0.732971 0
syringe_lod1
0  2.232782 2.329105 3.072367  0.787742 0.520019 -0.330216  0.022119 0.763900 0
0  -2.186689 2.311126 7.232485  -0.396603 0.776933 0.488959  0.206580 0.936148 0
0  2.208663 2.321889 7.218302  0.374791 0.594518 0.711393  0.023401 0.937224 0
syringe_lod1
0  1.777643 -2.966530 2.781105  0.349454 -0.627565 -0.695733  0.948008 0.516694 0
0  -1.642400 -3.245200 3.560968  -0.076631 -0.979433 -0.186653  0.805144 0.546255 0
0  -1.779030 -2.962210 2.782329  -0.282510 -0.671932 -0.684613  0.807488 0.516475 0
syringe_lod1
0  2.232782 2.329105 3.072367  0.787742 0.520019 -0.330216  0.180472 0.505644 0
0  2.388815 -3.066936 6.713387  0.997111 0.072021 0.024147  0.339996 0.727229 0
0  2.407995 -3.181849 3.370674  0.699886 -0.560055 -0.443282  0.194644 0.732812 0
syringe_lod1
0  1.650068 -3.255479 3.571956  -0.027227 -0.992598 -0.118356  0.950455 0.546749 0
0  2.423227 -3.185422 6.908031  0.785558 -0.548316 0.286789  0.978655 0.680218 0
0  1.653187 -3.248512 6.676989  0.081012 -0.995751 0.043791  0.951032 0.682582 0
syringe_lod1
0  1.109199 -3.598436 6.964856  0.680239 -0.179236 0.710739  0.685839 0.473506 0
0  1.213889 -2.879702 2.573034  0.739167 -0.109220 -0.664607  0.485497 0.443934 0
0  1.154688 -2.879706 7.056088  0.678479 -0.161754 0.716591  0.684740 0.443932 0
syringe_lod1
0  1.109199 -3.598436 6.964856  0.680239 -0.179236 0.710739  0.737745 0.966290 0
0  1.033342 -4.317215 2.758851  0.718177 -0.097182 -0.689041  0.925290 0.933660 0
0  1.070649 -3.563617 2.583937  0.653187 -0.127419 -0.746398  0.925998 0.966264 0
syringe_lod1
0  -1.267133 -6.152045 6.574753  -0.619181 -0.600778 0.505649  0.532380 0.742640 0
0  1.281998 -6.177642 6.542363  0.618517 -0.605461 0.500853  0.590342 0.742640 0
0  1.134311 -4.335400 6.797347  0.728203 -0.120733 0.674643  0.585014 0.826293 0
syringe_lod1
0  -1.083756 -3.589813 6.966000  -0.656582 -0.122306 0.744272  0.727930 0.357500 0
0  -1.116473 -4.339375 6.859834  -0.697551 -0.133562 0.703978  0.727930 0.336333 0
0  1.134311 -4.335400 6.797347  0.728203 -0.120733 0.674643  0.766243 0.336333 0
syringe_lod1
0  -1.267133 -6.152045 6.574753  -0.619181 -0.600778 0.505649  0.642048 0.744042 0
0  0.946011 -6.196905 2.880941  0.555956 -0.600188 -0.575054  0.732597 0.763195 0
0  1.281998 -6.177642 6.542363  0.618517 -0.605461 0.500853  0.644294 0.775708 0
syringe_lod1
0  -1.017836 -4.317099 2.729755  -0.682044 -0.077819 -0.727159  0.970213 0.933655 0
0  -1.167272 -3.563615 2.691841  -0.743493 -0.127156 -0.656544  0.970215 0.966259 0
0  1.070649 -3.563617 2.583937  0.653187 -0.127419 -0.746398  0.925998 0.966264 0
syringe_lod1
0  1.134311 -4.335400 6.797347  0.728203 -0.120733 0.674643  0.585014 0.826293 0
0  0.946011 -6.196905 2.880941  0.555956 -0.600188 -0.575054  0.756381 0.742640 0
0  1.033342 -4.317215 2.758851  0.718177 -0.097182 -0.689041  0.757759 0.826726 0
syringe_lod1
0  -1.245095 -2.879706 6.945322  -0.772035 -0.075836 0.631040  1.680147 0.443932 0
0  -1.167272 -3.563615 2.691841  -0.743493 -0.127156 -0.656544  1.487848 0.473508 0
0  -1.083756 -3.589813 6.966000  -0.656582 -0.122306 0.744272  1.686580 0.473506 0
syringe_lod1
0  1.033342 -4.317215 2.758851  0.718177 -0.097182 -0.689041  1.800537 0.826720 0
0  -0.928853 -6.161626 2.849512  -0.555446 -0.588016 -0.587977  1.758938 0.742640 0
0  -1.017836 -4.317099 2.729755  -0.682044 -0.077819 -0.727159  1.756322 0.826726 0
syringe_lod1
0  -1.083756 -3.589813 6.966000  -0.656582 -0.122306 0.744272  1.736234 0.966290 0
0  -1.017836 -4.317099 2.729755  -0.682044 -0.077819 -0.727159  1.926385 0.933660 0
0  -1.116473 -4.339375 6.859834  -0.697551 -0.133562 0.703978  1.739973 0.933251 0
syringe_lod1
0  -1.083756 -3.589813 6.966000  -0.656582 -0.122306 0.744272  1.881339 0.427069 0
0  1.109199 -3.598436 6.964856  0.680239 -0.179236 0.710739  1.842816 0.427069 0
0  1.154688 -2.879706 7.056088  0.678479 -0.161754 0.716591  1.842816 0.463230 0
syringe_lod1
0  -1.267133 -6.152045 6.574753  -0.619181 -0.600778 0.505649  1.588798 0.742640 0
0  1.134311 -4.335400 6.797347  0.728203 -0.120733 0.674643  1.532380 0.826299 0
0  -1.116473 -4.339375 6.859834  -0.697551 -0.133562 0.703978  1.598908 0.826297 0
syringe_lod1
0  -0.445099 1.068846 -2.452091  -0.589173 -0.544216 -0.597246  0.881355 0.331582 0
0  0.445257 3.059535 -2.695377  0.693042 -0.056697 -0.718664  0.842816 0.419230 0
0  0.445240 1.047640 -2.428555  0.602887 -0.552746 -0.575326  0.842856 0.330203 0
syringe_lod1
0  1.070649 -3.563617 2.583937  0.653187 -0.127419 -0.746398  1.436561 0.473506 0
0  -1.167272 -3.563615 2.691841  -0.743493 -0.127156 -0.656544  1.487848 0.473508 0
0  -1.170326 -2.879704 2.616594  -0.690233 -0.142868 -0.709343  1.485967 0.443934 0
syringe_lod1
0  -1.116473 -4.339375 6.859834  -0.697551 -0.133562 0.703978  1.598908 0.826297 0
0  -0.928853 -6.161626 2.849512  -0.555446 -0.588016 -0.587977  1.758938 0.742640 0
0  -1.267133 -6.152045 6.574753  -0.619181 -0.600778 0.505649  1.588798 0.742640 0
syringe_lod1
0  1.417711 3.778246 5.936346  0.841521 0.021797 0.539784  0.774373 0.339412 0
0  1.535051 2.147592 3.587877  0.691284 0.011407 -0.722493  0.834693 0.442042 0
0  1.634483 3.778246 5.118512  0.973984 -0.168373 0.151676  0.774373 0.381350 0
syringe_lod1
0  0.890007 -3.275679 2.130602  0.453949 -0.430192 0.780298  0.101681 0.562443 0
0  0.968373 -3.260667 1.371377  0.410847 -0.420436 -0.808974  0.101681 0.527713 0
0  1.208459 -2.843457 1.545468  0.933681 0.014005 -0.357833  0.114180 0.535180 0
syringe_lod1
0  0.968373 -3.260667 1.371377  0.410847 -0.420436 -0.808974  0.101681 0.527713 0
0  0.129495 -3.132497 1.619243  -0.928675 -0.210359 -0.305470  0.101681 0.505644 0
0  1.208459 -2.843457 1.545468  0.933681 0.014005 -0.357833  0.114180 0.535180 0
syringe_lod1
0  0.890007 -3.275679 2.130602  0.453949 -0.430192 0.780298  0.601103 0.882519 0
0  0.129495 -3.132497 1.619243  -0.928675 -0.210359 -0.305470  0.607102 0.925285 0
0  0.178667 -3.549064 1.825745  -0.674846 -0.699465 0.235226  0.589090 0.914380 0
syringe_lod1
0  -0.836535 -3.299134 2.165281  -0.399689 -0.498024 0.769558  1.101681 0.560692 0
0  -0.413186 -2.843458 2.189932  0.344010 0.002795 0.938962  1.114180 0.583812 0
0  -1.208458 -2.843458 1.545470  -0.973459 -0.014847 -0.228378  1.114180 0.535180 0
syringe_lod1
0  -0.123689 -3.132500 1.797114  0.932644 -0.343482 0.110430  1.101681 0.604896 0
0  -0.179006 -2.843457 1.487226  0.734833 -0.196757 -0.649082  1.114180 0.616539 0
0  -0.413186 -2.843458 2.189932  0.344010 0.002795 0.938962  1.114180 0.583812 0
syringe_lod1
0  -0.947452 -3.132511 1.314161  -0.484320 -0.185742 -0.854946  1.101681 0.636551 0
0  -1.208458 -2.843458 1.545470  -0.973459 -0.014847 -0.228378  1.114180 0.636551 0
0  -0.179006 -2.843457 1.487226  0.734833 -0.196757 -0.649082  1.114180 0.616539 0
syringe_lod1
0  -0.123689 -3.132500 1.797114  0.932644 -0.343482 0.110430  1.607103 0.917909 0
0  -0.836535 -3.299134 2.165281  -0.399689 -0.498024 0.769558  1.599065 0.881124 0
0  -0.545294 -3.549089 1.271198  0.202517 -0.679061 -0.705594  1.589090 0.934330 0
syringe_lod1
0  -0.947452 -3.132511 1.314161  -0.484320 -0.185742 -0.854946  1.607102 0.853176 0
0  -0.545294 -3.549089 1.271198  0.202517 -0.679061 -0.705594  1.589090 0.846481 0
0  -0.836535 -3.299134 2.165281  -0.399689 -0.498024 0.769558  1.599065 0.881124 0
syringe_lod1
0  0.004417 3.778246 6.757413  0.023453 -0.125949 0.991759  0.774373 0.255535 0
0  1.290299 2.147592 6.550390  0.702972 -0.007740 0.711175  0.834693 0.314249 0
0  0.821067 3.778246 6.536225  0.228601 0.095403 0.968834  0.774373 0.297473 0
syringe_lod1
0  1.535051 2.147592 3.587877  0.691284 0.011407 -0.722493  0.834693 0.442042 0
0  0.813416 3.778246 3.705216  0.563140 0.119259 -0.817710  0.774373 0.465226 0
0  1.413294 3.778246 4.301862  0.930240 0.261368 -0.257565  0.774373 0.423288 0
syringe_lod1
0  1.290299 2.147592 6.550390  0.702972 -0.007740 0.711175  0.834693 0.314249 0
0  1.417711 3.778246 5.936346  0.841521 0.021797 0.539784  0.774373 0.339412 0
0  0.821067 3.778246 6.536225  0.228601 0.095403 0.968834  0.774373 0.297473 0
syringe_lod1
0  -1.811690 2.147592 4.244234  -0.879568 -0.043920 -0.473742  0.834693 0.093137 0
0  -1.417711 3.778246 5.936346  -0.824996 -0.121462 0.551931  0.774373 0.171659 0
0  -1.634483 3.778246 5.118512  -0.994475 -0.100611 -0.029950  0.774373 0.129721 0
syringe_lod1
0  -0.988768 2.147592 6.835528  -0.518033 0.045795 0.854134  0.834693 0.212919 0
0  0.004417 3.778246 6.757413  0.023453 -0.125949 0.991759  0.774373 0.255535 0
0  -0.818130 3.782172 6.539973  -0.377254 0.065707 0.923776  0.774373 0.213597 0
syringe_lod1
0  -0.813417 3.778246 3.705217  -0.481379 -0.235815 -0.844195  0.774373 0.045844 0
0  1.535051 2.147592 3.587877  0.691284 0.011407 -0.722493  0.834693 0.003906 0
0  -1.811690 2.147592 4.244234  -0.879568 -0.043920 -0.473742  0.834693 0.093137 0
syringe_lod1
0  -2.041027 4.315348 4.255979  -0.952099 -0.280799 -0.121075  1.416241 0.742960 0
0  0.183013 9.759466 2.975464  -0.073021 0.528677 -0.845677  1.503742 0.962433 0
0  -0.403227 3.926678 3.248401  -0.360797 -0.180734 -0.914965  1.497538 0.742960 0
syringe_lod1
0  1.535051 2.147592 3.587877  0.691284 0.011407 -0.722493  0.834693 0.442042 0
0  0.000000 3.774301 3.490231  -0.210760 -0.255325 -0.943605  0.774373 0.507164 0
0  0.813416 3.778246 3.705216  0.563140 0.119259 -0.817710  0.774373 0.465226 0
syringe_lod1
0  -0.818130 3.782172 6.539973  -0.377254 0.065707 0.923776  0.774373 0.213597 0
0  -1.417711 3.778246 5.936346  -0.824996 -0.121462 0.551931  0.774373 0.171659 0
0  -0.988768 2.147592 6.835528  -0.518033 0.045795 0.854134  0.834693 0.212919 0
syringe_lod1
0  1.535051 2.147592 3.587877  0.691284 0.011407 -0.722493  0.834693 0.442042 0
0  1.413294 3.778246 4.301862  0.930240 0.261368 -0.257565  0.774373 0.423288 0
0  1.634483 3.778246 5.118512  0.973984 -0.168373 0.151676  0.774373 0.381350 0
syringe_lod1
0  1.360300 4.316097 3.353608  0.589004 -0.483078 -0.647850  0.462850 0.742960 0
0  0.183013 9.759466 2.975464  -0.073021 0.528677 -0.845677  0.487467 0.962433 0
0  1.730439 9.929730 4.205376  0.682592 0.623033 -0.381967  0.414633 0.962433 0
syringe_lod1
0  1.730439 9.929730 4.205376  0.682592 0.623033 -0.381967  0.414633 0.962433 0
0  1.631031 9.812155 6.475009  0.561591 0.497070 0.661466  0.297590 0.962433 0
0  2.178257 4.298368 5.446512  0.984018 0.060242 0.167568  0.366201 0.742960 0
syringe_lod1
0  0.467474 3.187018 3.426927  0.442738 0.321645 -0.836975  0.985440 0.899181 0
0  -0.403227 3.926678 3.248401  -0.360797 -0.180734 -0.914965  0.962101 0.909284 0
0  1.600180 3.181463 4.462856  0.880096 -0.300062 -0.367957  0.980307 0.826250 0
syringe_lod1
0  -0.528340 3.188879 6.736871  -0.181946 -0.230640 0.955877  0.766228 0.069801 0
0  1.126177 3.184827 6.398283  0.662568 -0.375965 0.647807  0.766228 0.132588 0
0  0.898997 4.338508 7.150009  0.104036 -0.141142 0.984508  0.733797 0.104219 0
syringe_lod1
0  2.178257 4.298368 5.446512  0.984018 0.060242 0.167568  0.733797 0.186954 0
0  0.898997 4.338508 7.150009  0.104036 -0.141142 0.984508  0.733797 0.104219 0
0  1.126177 3.184827 6.398283  0.662568 -0.375965 0.647807  0.766228 0.132588 0
syringe_lod1
0  0.898997 4.338508 7.150009  0.104036 -0.141142 0.984508  0.274855 0.742960 0
0  1.631031 9.812155 6.475009  0.561591 0.497070 0.661466  0.297590 0.962433 0
0  -0.777131 9.396557 7.143311  -0.107251 0.323610 0.940093  0.236854 0.962433 0
syringe_lod1
0  0.063896 10.809127 4.814444  0.040372 0.984632 -0.169914  0.980340 0.087354 0
0  1.730439 9.929730 4.205376  0.682592 0.623033 -0.381967  0.923807 0.075207 0
0  0.183013 9.759466 2.975464  -0.073021 0.528677 -0.845677  0.972616 0.028198 0
syringe_lod1
0  -0.324455 10.470744 6.432682  -0.130919 0.850660 0.509155  0.991717 0.162051 0
0  -0.777131 9.396557 7.143311  -0.107251 0.323610 0.940093  0.996094 0.219047 0
0  1.631031 9.812155 6.475009  0.561591 0.497070 0.661466  0.932124 0.165696 0
syringe_lod1
0  -2.041027 4.315348 4.255979  -0.952099 -0.280799 -0.121075  1.733797 0.232277 0
0  -1.155564 3.183977 3.870083  -0.704707 -0.285681 -0.649442  1.766228 0.244973 0
0  -1.727287 3.952090 6.010452  -0.757472 -0.200890 0.621192  1.752957 0.162755 0
syringe_lod1
0  -2.041027 4.315348 4.255979  -0.952099 -0.280799 -0.121075  1.416241 0.742960 0
0  -1.871180 9.861961 5.795325  -0.866684 0.379235 0.324096  1.352899 0.962433 0
0  -1.770211 9.810654 4.182294  -0.764258 0.367760 -0.529775  1.425825 0.962433 0
syringe_lod1
0  0.467474 3.187018 3.426927  0.442738 0.321645 -0.836975  1.985440 0.918847 0
0  -1.155564 3.183977 3.870083  -0.704707 -0.285681 -0.649442  1.983365 0.865652 0
0  -0.403227 3.926678 3.248401  -0.360797 -0.180734 -0.914965  1.962101 0.905529 0
syringe_lod1
0  -0.324455 10.470744 6.432682  -0.130919 0.850660 0.509155  1.982148 0.159550 0
0  -1.871180 9.861961 5.795325  -0.866684 0.379235 0.324096  1.915529 0.138927 0
0  -0.777131 9.396557 7.143311  -0.107251 0.323610 0.940093  1.959179 0.207522 0
syringe_lod1
0  -1.727287 3.952090 6.010452  -0.757472 -0.200890 0.621192  1.331212 0.742960 0
0  -0.528340 3.188879 6.736871  -0.181946 -0.230640 0.955877  1.270484 0.742960 0
0  -0.777131 9.396557 7.143311  -0.107251 0.323610 0.940093  1.270182 0.962433 0
syringe_lod1
0  -1.770211 9.810654 4.182294  -0.764258 0.367760 -0.529775  1.918306 0.067835 0
0  -1.871180 9.861961 5.795325  -0.866684 0.379235 0.324096  1.915529 0.138927 0
0  0.063896 10.809127 4.814444  0.040372 0.984632 -0.169914  1.971659 0.090906 0
syringe_lod1
0  -0.528340 3.188879 6.736871  -0.181946 -0.230640 0.955877  1.270484 0.742960 0
0  0.898997 4.338508 7.150009  0.104036 -0.141142 0.984508  1.236855 0.742960 0
0  -0.777131 9.396557 7.143311  -0.107251 0.323610 0.940093  1.270182 0.962433 0
syringe_lod1
0  -1.727287 3.952090 6.010452  -0.757472 -0.200890 0.621192  1.331212 0.742960 0
0  -0.777131 9.396557 7.143311  -0.107251 0.323610 0.940093  1.270182 0.962433 0
0  -1.871180 9.861961 5.795325  -0.866684 0.379235 0.324096  1.352899 0.962433 0
syringe_lod1
0  2.322036 0.174152 5.359153  0.999999 0.000515 -0.001290  0.694047 0.374594 0
0  2.320499 -1.877221 5.357154  0.999997 -0.000751 0.002278  0.693819 0.295938 0
0  2.322153 -1.879099 4.630710  0.999999 -0.000401 0.001290  0.717534 0.295745 0
syringe_lod1
0  2.322153 -1.879099 4.630710  0.999999 -0.000401 0.001290  0.717534 0.295745 0
0  2.320383 0.172103 4.633369  0.999997 0.000865 -0.002279  0.717312 0.374821 0
0  2.322036 0.174152 5.359153  0.999999 0.000515 -0.001290  0.694047 0.374594 0
syringe_lod1
0  2.134453 -7.850324 7.041305  0.581110 -0.438863 0.685354  0.568644 0.919024 0
0  2.572607 -7.819550 5.856722  0.932828 -0.307377 0.188017  0.568644 0.959821 0
0  2.274254 -7.534631 5.919336  0.131952 0.986615 0.095810  0.556006 0.959821 0
syringe_lod1
0  0.645410 -3.407604 1.881120  -0.137114 0.034224 0.989964  0.897182 0.478928 0
0  0.539309 -6.378950 1.858164  -0.815160 -0.554058 0.168918  0.889259 0.355865 0
0  0.792361 -6.204462 1.954340  0.289039 0.230262 0.929213  0.901702 0.354822 0
syringe_lod1
0  0.645410 -3.407604 1.881120  -0.137114 0.034224 0.989964  0.897182 0.478928 0
0  0.792361 -6.204462 1.954340  0.289039 0.230262 0.929213  0.901702 0.354822 0
0  0.787942 -6.300522 1.634053  -0.005758 -0.106963 -0.994246  0.920313 0.353764 0
syringe_lod1
0  1.846657 -6.832944 1.921151  -0.504647 -0.268603 0.820477  0.939123 0.297442 0
0  0.539309 -6.378950 1.858164  -0.815160 -0.554058 0.168918  0.939123 0.355865 0
0  0.787942 -6.300522 1.634053  -0.005758 -0.106963 -0.994246  0.920313 0.353764 0
syringe_lod1
0  2.194638 -7.512448 2.268162  0.253319 0.848534 0.464563  0.901702 0.254169 0
0  1.941616 -6.492030 1.887870  0.605289 0.789875 0.098602  0.907209 0.304059 0
0  1.846657 -6.832944 1.921151  -0.504647 -0.268603 0.820477  0.889259 0.297442 0
syringe_lod1
0  1.846657 -6.832944 1.921151  -0.504647 -0.268603 0.820477  0.889259 0.297442 0
0  1.941616 -6.492030 1.887870  0.605289 0.789875 0.098602  0.907209 0.304059 0
0  0.792361 -6.204462 1.954340  0.289039 0.230262 0.929213  0.901702 0.354822 0
syringe_lod1
0  2.266145 -7.323905 1.744838  0.520808 -0.401629 -0.753295  0.919519 0.273977 0
0  2.524979 -7.788671 3.159782  0.991601 -0.006093 -0.129190  0.914192 0.214217 0
0  2.013318 -8.067568 2.965261  -0.421048 -0.853651 -0.306591  0.927447 0.218682 0
syringe_lod1
0  2.194638 -7.512448 2.268162  0.253319 0.848534 0.464563  0.901702 0.254169 0
0  1.964318 -7.529561 3.073943  -0.607738 0.787888 -0.099430  0.896324 0.214217 0
0  2.524979 -7.788671 3.159782  0.991601 -0.006093 -0.129190  0.914192 0.214217 0
syringe_lod1
0  2.194638 -7.512448 2.268162  0.253319 0.848534 0.464563  0.901702 0.254169 0
0  2.013318 -8.067568 2.965261  -0.421048 -0.853651 -0.306591  0.889259 0.248314 0
0  1.964318 -7.529561 3.073943  -0.607738 0.787888 -0.099430  0.896324 0.214217 0
syringe_lod1
0  1.841972 -7.863258 5.929460  -0.925748 -0.371376 0.071207  0.537555 0.959821 0
0  1.900245 -7.818483 6.731368  -0.582022 -0.665901 -0.466719  0.537619 0.920058 0
0  2.022631 -7.585806 6.960188  0.233674 0.871966 0.430200  0.556006 0.918103 0
syringe_lod1
0  1.841972 -7.863258 5.929460  -0.925748 -0.371376 0.071207  0.056216 0.401784 0
0  2.274254 -7.534631 5.919336  0.131952 0.986615 0.095810  0.056945 0.377981 0
0  1.964318 -7.529561 3.073943  -0.607738 0.787888 -0.099430  0.178643 0.392206 0
syringe_lod1
0  2.274254 -7.534631 5.919336  0.131952 0.986615 0.095810  0.056945 0.377981 0
0  2.524979 -7.788671 3.159782  0.991601 -0.006093 -0.129190  0.177677 0.371017 0
0  1.964318 -7.529561 3.073943  -0.607738 0.787888 -0.099430  0.178643 0.392206 0
syringe_lod1
0  1.841972 -7.863258 5.929460  -0.925748 -0.371376 0.071207  0.056285 0.328022 0
0  1.964318 -7.529561 3.073943  -0.607738 0.787888 -0.099430  0.178720 0.322338 0
0  2.013318 -8.067568 2.965261  -0.421048 -0.853651 -0.306591  0.178684 0.343630 0
syringe_lod1
0  2.572607 -7.819550 5.856722  0.932828 -0.307377 0.188017  0.057328 0.358888 0
0  2.013318 -8.067568 2.965261  -0.421048 -0.853651 -0.306591  0.178684 0.343630 0
0  2.524979 -7.788671 3.159782  0.991601 -0.006093 -0.129190  0.177815 0.360774 0
syringe_lod1
0  0.547035 -3.407455 1.549857  -0.709482 0.017910 -0.704496  0.926633 0.478928 0
0  0.787942 -6.300522 1.634053  -0.005758 -0.106963 -0.994246  0.920313 0.353764 0
0  0.539309 -6.378950 1.858164  -0.815160 -0.554058 0.168918  0.939123 0.355865 0
syringe_lod1
0  1.900245 -7.818483 6.731368  -0.582022 -0.665901 -0.466719  0.581099 0.920635 0
0  1.841972 -7.863258 5.929460  -0.925748 -0.371376 0.071207  0.581099 0.959821 0
0  2.572607 -7.819550 5.856722  0.932828 -0.307377 0.188017  0.568644 0.959821 0
syringe_lod1
0  -2.274292 -7.534602 5.919302  -0.132177 0.986535 0.096319  1.556006 0.959821 0
0  -2.572711 -7.819451 5.856854  -0.945686 -0.293695 0.139359  1.568644 0.959821 0
0  -2.155613 -7.843091 6.996919  -0.606390 -0.098850 0.788999  1.568644 0.920427 0
syringe_lod1
0  -0.789972 -6.202654 1.953612  -0.352277 0.192667 0.915850  1.901702 0.354963 0
0  -0.539306 -6.378920 1.858128  0.825327 -0.538332 0.170395  1.889259 0.355867 0
0  -0.482436 -3.407954 1.722186  0.989684 0.009003 -0.142983  1.889259 0.478928 0
syringe_lod1
0  -0.819081 -3.407455 1.621074  -0.696953 -0.009910 -0.717048  1.914192 0.478928 0
0  -0.482436 -3.407954 1.722186  0.989684 0.009003 -0.142983  1.934764 0.478928 0
0  -0.788442 -6.300806 1.631282  -0.084233 -0.124649 -0.988619  1.920327 0.353765 0
syringe_lod1
0  -0.788442 -6.300806 1.631282  -0.084233 -0.124649 -0.988619  1.920327 0.353765 0
0  -0.789972 -6.202654 1.953612  -0.352277 0.192667 0.915850  1.901702 0.354963 0
0  -0.747863 -3.407455 1.893120  -0.369200 0.002072 0.929348  1.901702 0.478928 0
syringe_lod1
0  -1.846626 -6.832992 1.920407  0.354131 -0.320079 0.878715  1.939123 0.297437 0
0  -2.266425 -7.323902 1.744881  -0.320428 -0.388437 -0.863969  1.919514 0.273974 0
0  -0.788442 -6.300806 1.631282  -0.084233 -0.124649 -0.988619  1.920327 0.353765 0
syringe_lod1
0  -2.229010 -6.932431 1.919822  -0.645918 0.756747 -0.100619  1.904796 0.282408 0
0  -0.789972 -6.202654 1.953612  -0.352277 0.192667 0.915850  1.901702 0.354963 0
0  -0.788442 -6.300806 1.631282  -0.084233 -0.124649 -0.988619  1.920327 0.353765 0
syringe_lod1
0  -0.789972 -6.202654 1.953612  -0.352277 0.192667 0.915850  1.901702 0.354963 0
0  -2.229010 -6.932431 1.919822  -0.645918 0.756747 -0.100619  1.904796 0.282408 0
0  -1.846626 -6.832992 1.920407  0.354131 -0.320079 0.878715  1.889259 0.297437 0
syringe_lod1
0  -1.949141 -7.643018 6.788779  0.163571 0.973461 0.160056  1.549414 0.920654 0
0  1.900245 -7.818483 6.731368  -0.582022 -0.665901 -0.466719  1.543551 0.834121 0
0  -1.908053 -7.966896 6.820211  0.167914 -0.985544 -0.022548  1.530914 0.918144 0
syringe_lod1
0  -2.155613 -7.843091 6.996919  -0.606390 -0.098850 0.788999  1.568644 0.920427 0
0  2.134453 -7.850324 7.041305  0.581110 -0.438863 0.685354  1.568644 0.834121 0
0  2.022631 -7.585806 6.960188  0.233674 0.871966 0.430200  1.556006 0.834121 0
syringe_lod1
0  -2.013324 -8.067552 2.965326  0.417335 -0.861613 -0.288884  1.927447 0.218680 0
0  -2.525030 -7.787830 3.159437  -0.997441 -0.066208 -0.026970  1.914192 0.214217 0
0  -2.266425 -7.323902 1.744881  -0.320428 -0.388437 -0.863969  1.919514 0.273974 0
syringe_lod1
0  -2.229010 -6.932431 1.919822  -0.645918 0.756747 -0.100619  1.904796 0.282408 0
0  -2.266425 -7.323902 1.744881  -0.320428 -0.388437 -0.863969  1.919514 0.273974 0
0  -2.525030 -7.787830 3.159437  -0.997441 -0.066208 -0.026970  1.914192 0.214217 0
syringe_lod1
0  -1.964502 -7.529431 3.073889  0.692868 0.717323 0.073354  1.896329 0.214217 0
0  -2.013324 -8.067552 2.965326  0.417335 -0.861613 -0.288884  1.889259 0.248314 0
0  -2.229010 -6.932431 1.919822  -0.645918 0.756747 -0.100619  1.904796 0.282408 0
syringe_lod1
0  -1.841970 -7.863411 5.929027  0.936470 -0.345116 -0.062596  1.537547 0.959821 0
0  -2.274292 -7.534602 5.919302  -0.132177 0.986535 0.096319  1.556006 0.959821 0
0  -1.949141 -7.643018 6.788779  0.163571 0.973461 0.160056  1.549414 0.920654 0
syringe_lod1
0  -1.964502 -7.529431 3.073889  0.692868 0.717323 0.073354  1.178643 0.392199 0
0  -2.274292 -7.534602 5.919302  -0.132177 0.986535 0.096319  1.056944 0.377984 0
0  -1.841970 -7.863411 5.929027  0.936470 -0.345116 -0.062596  1.056216 0.401784 0
syringe_lod1
0  -2.525030 -7.787830 3.159437  -0.997441 -0.066208 -0.026970  1.382200 0.168098 0
0  -2.572711 -7.819451 5.856854  -0.945686 -0.293695 0.139359  1.471768 0.192042 0
0  -2.274292 -7.534602 5.919302  -0.132177 0.986535 0.096319  1.490689 0.163899 0
syringe_lod1
0  -2.525030 -7.787830 3.159437  -0.997441 -0.066208 -0.026970  1.177815 0.360774 0
0  -2.013324 -8.067552 2.965326  0.417335 -0.861613 -0.288884  1.178684 0.343630 0
0  -2.572711 -7.819451 5.856854  -0.945686 -0.293695 0.139359  1.057320 0.358889 0
syringe_lod1
0  -0.539306 -6.378920 1.858128  0.825327 -0.538332 0.170395  1.939123 0.355867 0
0  -0.788442 -6.300806 1.631282  -0.084233 -0.124649 -0.988619  1.920327 0.353765 0
0  -0.482436 -3.407954 1.722186  0.989684 0.009003 -0.142983  1.934764 0.478928 0
syringe_lod1
0  -1.908053 -7.966896 6.820211  0.167914 -0.985544 -0.022548  1.581099 0.918144 0
0  -2.155613 -7.843091 6.996919  -0.606390 -0.098850 0.788999  1.568644 0.920427 0
0  -2.572711 -7.819451 5.856854  -0.945686 -0.293695 0.139359  1.568644 0.959821 0
syringe_lod1
0  0.050128 -6.268886 4.982613  0.033645 -0.260960 -0.964763  0.298736 0.225748 0
0  -0.901872 -5.960441 5.462985  -0.855910 -0.499771 -0.132840  0.291365 0.221420 0
0  0.908885 -5.960673 5.405392  0.803972 -0.555793 -0.211478  0.319076 0.221437 0
syringe_lod1
0  -0.222203 -6.330772 3.291874  -0.403333 -0.713384 -0.573067  0.093835 0.528550 0
0  -0.367521 -6.322388 3.949272  -0.286413 -0.865143 0.411699  0.093835 0.566806 0
0  -0.820824 -5.961208 4.129755  -0.660083 -0.642964 0.388444  0.085059 0.566335 0
syringe_lod1
0  0.908885 -5.960673 5.405392  0.803972 -0.555793 -0.211478  0.077213 0.540211 0
0  0.441057 -6.317284 5.650262  0.421101 -0.881064 0.215409  0.068438 0.544055 0
0  0.050128 -6.268886 4.982613  0.033645 -0.260960 -0.964763  0.073735 0.508593 0
syringe_lod1
0  0.908885 -5.960673 5.405392  0.803972 -0.555793 -0.211478  0.077213 0.540211 0
0  0.114078 -5.968655 6.334867  0.046045 -0.789281 0.612303  0.075373 0.588168 0
0  0.441057 -6.317284 5.650262  0.421101 -0.881064 0.215409  0.068438 0.544055 0
syringe_lod1
0  0.865517 -5.960884 3.915409  0.613605 -0.767871 0.184019  0.085060 0.634767 0
0  0.415202 -6.310883 3.956498  0.393136 -0.774695 0.495268  0.093835 0.622835 0
0  0.156700 -5.964534 2.869942  0.124262 -0.768201 -0.628033  0.087024 0.679718 0
syringe_lod1
0  -0.820824 -5.961208 4.129755  -0.660083 -0.642964 0.388444  0.085059 0.566335 0
0  0.156700 -5.964534 2.869942  0.124262 -0.768201 -0.628033  0.087024 0.509191 0
0  -0.222203 -6.330772 3.291874  -0.403333 -0.713384 -0.573067  0.093835 0.528550 0
syringe_lod1
0  -0.445099 1.068846 -2.452091  -0.589173 -0.544216 -0.597246  0.881355 0.331582 0
0  0.445240 1.047640 -2.428555  0.602887 -0.552746 -0.575326  0.842856 0.330203 0
0  0.445156 0.220737 1.938341  0.590182 -0.624997 0.510943  0.842849 0.132050 0
syringe_lod1
0  0.984847 7.387740 -5.880854  0.704311 0.543188 -0.457048  0.034906 0.460168 0
0  1.391474 4.207886 -7.037385  0.725294 -0.022200 -0.688082  0.185762 0.437727 0
0  0.019500 3.844382 -7.585466  -0.030946 -0.476594 -0.878578  0.192899 0.497822 0
syringe_lod1
0  0.172796 5.441558 1.064940  -0.075579 0.896413 -0.436728  0.063625 0.063215 0
0  0.934155 4.963264 0.469434  0.842005 0.531590 -0.091873  0.109938 0.067653 0
0  0.984847 7.387740 -5.880854  0.704311 0.543188 -0.457048  0.104775 0.298278 0
syringe_lod1
0  1.489820 3.504361 2.899780  0.659515 0.084091 0.746973  0.632794 0.428354 0
0  1.386454 6.539102 2.920640  0.476548 0.646402 0.595874  0.498648 0.428849 0
0  -1.288592 6.576059 2.753124  -0.486210 0.702526 0.519671  0.498648 0.379851 0
syringe_lod1
0  1.042123 1.679070 1.514329  0.603057 -0.401710 -0.689167  1.003942 0.225026 0
0  -1.219447 1.647474 1.555448  -0.726368 -0.206442 -0.655569  1.048218 0.267875 0
0  -1.062163 2.840554 -2.344668  -0.669804 -0.717580 0.190896  1.048379 0.124010 0
syringe_lod1
0  1.212206 -2.965359 0.983049  0.583309 -0.481491 -0.654153  1.366042 0.389603 0
0  -1.293829 -2.995648 1.318507  -0.495035 -0.666380 -0.557564  1.365917 0.346289 0
0  -1.266161 -0.566482 1.399515  -0.650866 0.030076 -0.758597  1.245064 0.345361 0
syringe_lod1
0  -1.219447 1.647474 1.555448  -0.726368 -0.206442 -0.655569  1.263200 0.048616 0
0  -1.266161 -0.566482 1.399515  -0.650866 0.030076 -0.758597  1.367286 0.040552 0
0  -1.992168 -2.943171 2.869672  -0.703659 -0.545416 0.455396  1.471413 0.003906 0
syringe_lod1
0  -0.967477 7.393085 -5.903878  -0.689712 0.562886 -0.455474  1.034616 0.459954 0
0  0.005379 7.886476 -5.940091  0.002225 0.930077 -0.367358  1.022647 0.497822 0
0  0.019500 3.844382 -7.585466  -0.030946 -0.476594 -0.878578  1.192899 0.497822 0
syringe_lod1
0  0.172796 5.441558 1.064940  -0.075579 0.896413 -0.436728  1.063625 0.063215 0
0  0.005379 7.886476 -5.940091  0.002225 0.930077 -0.367358  1.059898 0.311871 0
0  -0.967477 7.393085 -5.903878  -0.689712 0.562886 -0.455474  1.106057 0.295000 0
syringe_lod1
0  1.058581 3.453112 -5.775114  0.606825 -0.794570 -0.020563  1.269475 0.497822 0
0  -1.392585 3.785732 -4.993131  -0.916204 -0.387051 -0.103739  1.292359 0.434013 0
0  -1.391119 4.018207 -7.014406  -0.540451 -0.429413 -0.723545  1.193338 0.438511 0
syringe_lod1
0  -1.623676 -3.267450 7.394072  -0.212714 -0.713517 0.667568  0.807529 0.712292 0
0  -1.649865 -3.252311 6.676107  -0.087351 -0.994612 -0.055827  0.805055 0.682806 0
0  1.653187 -3.248512 6.676989  0.081012 -0.995751 0.043791  0.951032 0.682582 0
syringe_lod1
0  -1.649865 -3.252311 6.676107  -0.087351 -0.994612 -0.055827  0.805055 0.682806 0
0  -2.405972 -3.173938 6.912158  -0.783109 -0.521217 0.339224  0.776288 0.680252 0
0  -2.404791 -3.199994 3.373882  -0.694861 -0.657435 -0.291458  0.776591 0.549328 0
syringe_lod1
0  1.777643 -2.966530 2.781105  0.349454 -0.627565 -0.695733  0.156926 0.722459 0
0  1.774221 2.058039 2.822282  0.327672 0.303979 -0.894555  0.157211 0.505644 0
0  2.232782 2.329105 3.072367  0.787742 0.520019 -0.330216  0.180472 0.505644 0
syringe_lod1
0  -1.649865 -3.252311 6.676107  -0.087351 -0.994612 -0.055827  0.805055 0.682806 0
0  -1.642400 -3.245200 3.560968  -0.076631 -0.979433 -0.186653  0.805144 0.546255 0
0  1.650068 -3.255479 3.571956  -0.027227 -0.992598 -0.118356  0.950455 0.546749 0
syringe_lod1
0  -2.405972 -3.173938 6.912158  -0.783109 -0.521217 0.339224  0.574526 0.732455 0
0  -2.186689 2.311126 7.232485  -0.396603 0.776933 0.488959  0.557274 0.505644 0
0  -2.239949 2.326915 3.087815  -0.784387 0.559614 -0.267525  0.742220 0.505644 0
syringe_lod1
0  1.624646 -3.261487 7.397170  0.276624 -0.640335 0.716554  0.389636 0.733250 0
0  2.208663 2.321889 7.218302  0.374791 0.594518 0.711393  0.362887 0.505644 0
0  -2.186689 2.311126 7.232485  -0.396603 0.776933 0.488959  0.557274 0.505644 0
syringe_lod1
0  -2.239949 2.326915 3.087815  -0.784387 0.559614 -0.267525  0.742220 0.505644 0
0  -1.774222 2.058039 2.822282  -0.333811 0.319167 -0.886963  0.766163 0.505644 0
0  -1.779030 -2.962210 2.782329  -0.282510 -0.671932 -0.684613  0.766163 0.722261 0
syringe_lod1
0  2.232782 2.329105 3.072367  0.787742 0.520019 -0.330216  0.022119 0.763900 0
0  -2.239949 2.326915 3.087815  -0.784387 0.559614 -0.267525  0.208704 0.764113 0
0  -2.186689 2.311126 7.232485  -0.396603 0.776933 0.488959  0.206580 0.936148 0
syringe_lod1
0  1.777643 -2.966530 2.781105  0.349454 -0.627565 -0.695733  0.948008 0.516694 0
0  1.650068 -3.255479 3.571956  -0.027227 -0.992598 -0.118356  0.950455 0.546749 0
0  -1.642400 -3.245200 3.560968  -0.076631 -0.979433 -0.186653  0.805144 0.546255 0
syringe_lod1
0  2.232782 2.329105 3.072367  0.787742 0.520019 -0.330216  0.180472 0.505644 0
0  2.208663 2.321889 7.218302  0.374791 0.594518 0.711393  0.362887 0.505644 0
0  2.388815 -3.066936 6.713387  0.997111 0.072021 0.024147  0.339996 0.727229 0
syringe_lod1
0  1.650068 -3.255479 3.571956  -0.027227 -0.992598 -0.118356  0.950455 0.546749 0
0  2.407995 -3.181849 3.370674  0.699886 -0.560055 -0.443282  0.979117 0.549321 0
0  2.423227 -3.185422 6.908031  0.785558 -0.548316 0.286789  0.978655 0.680218 0
syringe_lod1
0  1.109199 -3.598436 6.964856  0.680239 -0.179236 0.710739  0.685839 0.473506 0
0  1.070649 -3.563617 2.583937  0.653187 -0.127419 -0.746398  0.483089 0.473508 0
0  1.213889 -2.879702 2.573034  0.739167 -0.109220 -0.664607  0.485497 0.443934 0
syringe_lod1
0  1.109199 -3.598436 6.964856  0.680239 -0.179236 0.710739  0.737745 0.966290 0
0  1.134311 -4.335400 6.797347  0.728203 -0.120733 0.674643  0.740707 0.933252 0
0  1.033342 -4.317215 2.758851  0.718177 -0.097182 -0.689041  0.925290 0.933660 0
syringe_lod1
0  -1.267133 -6.152045 6.574753  -0.619181 -0.600778 0.505649  0.642048 0.744042 0
0  -0.928853 -6.161626 2.849512  -0.555446 -0.588016 -0.587977  0.741833 0.744042 0
0  0.946011 -6.196905 2.880941  0.555956 -0.600188 -0.575054  0.732597 0.763195 0
syringe_lod1
0  1.134311 -4.335400 6.797347  0.728203 -0.120733 0.674643  0.585014 0.826293 0
0  1.281998 -6.177642 6.542363  0.618517 -0.605461 0.500853  0.590342 0.742640 0
0  0.946011 -6.196905 2.880941  0.555956 -0.600188 -0.575054  0.756381 0.742640 0
syringe_lod1
0  -1.245095 -2.879706 6.945322  -0.772035 -0.075836 0.631040  1.680147 0.443932 0
0  -1.170326 -2.879704 2.616594  -0.690233 -0.142868 -0.709343  1.485967 0.443934 0
0  -1.167272 -3.563615 2.691841  -0.743493 -0.127156 -0.656544  1.487848 0.473508 0
syringe_lod1
0  1.033342 -4.317215 2.758851  0.718177 -0.097182 -0.689041  1.800537 0.826720 0
0  0.946011 -6.196905 2.880941  0.555956 -0.600188 -0.575054  1.800537 0.742640 0
0  -0.928853 -6.161626 2.849512  -0.555446 -0.588016 -0.587977  1.758938 0.742640 0
syringe_lod1
0  -1.083756 -3.589813 6.966000  -0.656582 -0.122306 0.744272  1.736234 0.966290 0
0  -1.167272 -3.563615 2.691841  -0.743493 -0.127156 -0.656544  1.923963 0.966264 0
0  -1.017836 -4.317099 2.729755  -0.682044 -0.077819 -0.727159  1.926385 0.933660 0
syringe_lod1
0  -0.445099 1.068846 -2.452091  -0.589173 -0.544216 -0.597246  0.881355 0.331582 0
0  -0.445083 3.059540 -2.695393  -0.686648 -0.057368 -0.724723  0.881316 0.419247 0
0  0.445257 3.059535 -2.695377  0.693042 -0.056697 -0.718664  0.842816 0.419230 0
syringe_lod1
0  -1.116473 -4.339375 6.859834  -0.697551 -0.133562 0.703978  1.598908 0.826297 0
0  -1.017836 -4.317099 2.729755  -0.682044 -0.077819 -0.727159  1.756322 0.826726 0
0  -0.928853 -6.161626 2.849512  -0.555446 -0.588016 -0.587977  1.758938 0.742640 0
syringe_lod1
0  1.417711 3.778246 5.936346  0.841521 0.021797 0.539784  0.774373 0.339412 0
0  1.290299 2.147592 6.550390  0.702972 -0.007740 0.711175  0.834693 0.314249 0
0  1.535051 2.147592 3.587877  0.691284 0.011407 -0.722493  0.834693 0.442042 0
syringe_lod1
0  0.004417 3.778246 6.757413  0.023453 -0.125949 0.991759  0.774373 0.255535 0
0  -0.988768 2.147592 6.835528  -0.518033 0.045795 0.854134  0.834693 0.212919 0
0  1.290299 2.147592 6.550390  0.702972 -0.007740 0.711175  0.834693 0.314249 0
syringe_lod1
0  -1.811690 2.147592 4.244234  -0.879568 -0.043920 -0.473742  0.834693 0.093137 0
0  -0.988768 2.147592 6.835528  -0.518033 0.045795 0.854134  0.834693 0.212919 0
0  -1.417711 3.778246 5.936346  -0.824996 -0.121462 0.551931  0.774373 0.171659 0
syringe_lod1
0  -0.813417 3.778246 3.705217  -0.481379 -0.235815 -0.844195  0.774373 0.045844 0
0  0.000000 3.774301 3.490231  -0.210760 -0.255325 -0.943605  0.774373 0.003906 0
0  1.535051 2.147592 3.587877  0.691284 0.011407 -0.722493  0.834693 0.003906 0
syringe_lod1
0  -2.041027 4.315348 4.255979  -0.952099 -0.280799 -0.121075  1.416241 0.742960 0
0  -1.770211 9.810654 4.182294  -0.764258 0.367760 -0.529775  1.425825 0.962433 0
0  0.183013 9.759466 2.975464  -0.073021 0.528677 -0.845677  1.503742 0.962433 0
end
