version 1
nodes
0 "root" -1
end
skeleton
time 0
0 0 0 0 0 0 0
end
triangles
syringe_lod0
0  -2.400000 -7.987528 1.600000  -0.577350 -0.577350 -0.577350  0.375000 0.000000 0
0  -2.400000 10.258554 7.388958  -0.577350 0.577350 0.577350  0.625000 0.250000 0
0  -2.400000 10.258554 1.600000  -0.577350 0.577350 -0.577350  0.375000 0.250000 0
syringe_lod0
0  -2.400000 10.258554 1.600000  -0.577350 0.577350 -0.577350  0.375000 0.250000 0
0  2.353820 10.258554 7.388958  0.577350 0.577350 0.577350  0.625000 0.500000 0
0  2.353820 10.258554 1.600000  0.577350 0.577350 -0.577350  0.375000 0.500000 0
syringe_lod0
0  2.353820 10.258554 1.600000  0.577350 0.577350 -0.577350  0.375000 0.500000 0
0  2.353820 -7.987528 7.388958  0.577350 -0.577350 0.577350  0.625000 0.750000 0
0  2.353820 -7.987528 1.600000  0.577350 -0.577350 -0.577350  0.375000 0.750000 0
syringe_lod0
0  2.353820 -7.987528 1.600000  0.577350 -0.577350 -0.577350  0.375000 0.750000 0
0  -2.400000 -7.987528 7.388958  -0.577350 -0.577350 0.577350  0.625000 1.000000 0
0  -2.400000 -7.987528 1.600000  -0.577350 -0.577350 -0.577350  0.375000 1.000000 0
syringe_lod0
0  -2.400000 10.258554 1.600000  -0.577350 0.577350 -0.577350  0.125000 0.500000 0
0  2.353820 -7.987528 1.600000  0.577350 -0.577350 -0.577350  0.375000 0.750000 0
0  -2.400000 -7.987528 1.600000  -0.577350 -0.577350 -0.577350  0.125000 0.750000 0
syringe_lod0
0  2.353820 10.258554 7.388958  0.577350 0.577350 0.577350  0.625000 0.500000 0
0  -2.400000 -7.987528 7.388958  -0.577350 -0.577350 0.577350  0.875000 0.750000 0
0  2.353820 -7.987528 7.388958  0.577350 -0.577350 0.577350  0.625000 0.750000 0
syringe_lod0
0  -1.500000 3.600000 -8.000000  -0.572732 -0.332999 -0.749059  0.375000 0.000000 0
0  1.400000 0.400000 1.600000  0.562291 -0.670848 0.483520  0.625000 0.250000 0
0  -1.500000 0.400000 1.600000  -0.562291 -0.670848 0.483520  0.375000 0.250000 0
syringe_lod0
0  -1.500000 0.400000 1.600000  -0.562291 -0.670848 0.483520  0.375000 0.250000 0
0  1.400000 5.400000 1.600000  0.600042 0.448485 0.662427  0.625000 0.500000 0
0  -1.500000 5.400000 1.600000  -0.600042 0.448485 0.662427  0.375000 0.500000 0
syringe_lod0
0  -1.500000 5.400000 1.600000  -0.600042 0.448485 0.662427  0.375000 0.500000 0
0  1.400000 8.400000 -5.900001  0.579047 0.754402 -0.309166  0.625000 0.750000 0
0  -1.500000 8.400000 -5.900001  -0.579047 0.754401 -0.309166  0.375000 0.750000 0
syringe_lod0
0  -1.500000 8.400000 -5.900001  -0.579047 0.754401 -0.309166  0.375000 0.750000 0
0  1.400000 3.600000 -8.000000  0.572732 -0.332999 -0.749059  0.625000 1.000000 0
0  -1.500000 3.600000 -8.000000  -0.572732 -0.332999 -0.749059  0.375000 1.000000 0
syringe_lod0
0  -1.500000 0.400000 1.600000  -0.562291 -0.670848 0.483520  0.125000 0.500000 0
0  -1.500000 8.400000 -5.900001  -0.579047 0.754401 -0.309166  0.375000 0.750000 0
0  -1.500000 3.600000 -8.000000  -0.572732 -0.332999 -0.749059  0.125000 0.750000 0
syringe_lod0
0  1.400000 5.400000 1.600000  0.600042 0.448485 0.662427  0.625000 0.500000 0
0  1.400000 3.600000 -8.000000  0.572732 -0.332999 -0.749059  0.875000 0.750000 0
0  1.400000 8.400000 -5.900001  0.579047 0.754402 -0.309166  0.625000 0.750000 0
syringe_lod0
0  -2.400000 -7.987528 1.600000  -0.577350 -0.577350 -0.577350  0.375000 0.000000 0
0  -2.400000 -7.987528 7.388958  -0.577350 -0.577350 0.577350  0.625000 0.000000 0
0  -2.400000 10.258554 7.388958  -0.577350 0.577350 0.577350  0.625000 0.250000 0
syringe_lod0
0  -2.400000 10.258554 1.600000  -0.577350 0.577350 -0.577350  0.375000 0.250000 0
0  -2.400000 10.258554 7.388958  -0.577350 0.577350 0.577350  0.625000 0.250000 0
0  2.353820 10.258554 7.388958  0.577350 0.577350 0.577350  0.625000 0.500000 0
syringe_lod0
0  2.353820 10.258554 1.600000  0.577350 0.577350 -0.577350  0.375000 0.500000 0
0  2.353820 10.258554 7.388958  0.577350 0.577350 0.577350  0.625000 0.500000 0
0  2.353820 -7.987528 7.388958  0.577350 -0.577350 0.577350  0.625000 0.750000 0
syringe_lod0
0  2.353820 -7.987528 1.600000  0.577350 -0.577350 -0.577350  0.375000 0.750000 0
0  2.353820 -7.987528 7.388958  0.577350 -0.577350 0.577350  0.625000 0.750000 0
0  -2.400000 -7.987528 7.388958  -0.577350 -0.577350 0.577350  0.625000 1.000000 0
syringe_lod0
0  -2.400000 10.258554 1.600000  -0.577350 0.577350 -0.577350  0.125000 0.500000 0
0  2.353820 10.258554 1.600000  0.577350 0.577350 -0.577350  0.375000 0.500000 0
0  2.353820 -7.987528 1.600000  0.577350 -0.577350 -0.577350  0.375000 0.750000 0
syringe_lod0
0  2.353820 10.258554 7.388958  0.577350 0.577350 0.577350  0.625000 0.500000 0
0  -2.400000 10.258554 7.388958  -0.577350 0.577350 0.577350  0.875000 0.500000 0
0  -2.400000 -7.987528 7.388958  -0.577350 -0.577350 0.577350  0.875000 0.750000 0
syringe_lod0
0  -1.500000 3.600000 -8.000000  -0.572732 -0.332999 -0.749059  0.375000 0.000000 0
0  1.400000 3.600000 -8.000000  0.572732 -0.332999 -0.749059  0.625000 0.000000 0
0  1.400000 0.400000 1.600000  0.562291 -0.670848 0.483520  0.625000 0.250000 0
syringe_lod0
0  -1.500000 0.400000 1.600000  -0.562291 -0.670848 0.483520  0.375000 0.250000 0
0  1.400000 0.400000 1.600000  0.562291 -0.670848 0.483520  0.625000 0.250000 0
0  1.400000 5.400000 1.600000  0.600042 0.448485 0.662427  0.625000 0.500000 0
syringe_lod0
0  -1.500000 5.400000 1.600000  -0.600042 0.448485 0.662427  0.375000 0.500000 0
0  1.400000 5.400000 1.600000  0.600042 0.448485 0.662427  0.625000 0.500000 0
0  1.400000 8.400000 -5.900001  0.579047 0.754402 -0.309166  0.625000 0.750000 0
syringe_lod0
0  -1.500000 8.400000 -5.900001  -0.579047 0.754401 -0.309166  0.375000 0.750000 0
0  1.400000 8.400000 -5.900001  0.579047 0.754402 -0.309166  0.625000 0.750000 0
0  1.400000 3.600000 -8.000000  0.572732 -0.332999 -0.749059  0.625000 1.000000 0
syringe_lod0
0  -1.500000 0.400000 1.600000  -0.562291 -0.670848 0.483520  0.125000 0.500000 0
0  -1.500000 5.400000 1.600000  -0.600042 0.448485 0.662427  0.375000 0.500000 0
0  -1.500000 8.400000 -5.900001  -0.579047 0.754401 -0.309166  0.375000 0.750000 0
syringe_lod0
0  1.400000 5.400000 1.600000  0.600042 0.448485 0.662427  0.625000 0.500000 0
0  1.400000 0.400000 1.600000  0.562291 -0.670848 0.483520  0.875000 0.500000 0
0  1.400000 3.600000 -8.000000  0.572732 -0.332999 -0.749059  0.875000 0.750000 0
end
