<?xml version="1.0" encoding="UTF-8" standalone="no"?>
<svg
   viewBox="0 0 1950 1174.6306"
   version="1.1"
   id="svg1"
   sodipodi:docname="smg_alt.svg"
   width="1950"
   height="1174.6306"
   inkscape:version="1.4.2 (f4327f4, 2025-05-13)"
   xmlns:inkscape="http://www.inkscape.org/namespaces/inkscape"
   xmlns:sodipodi="http://sodipodi.sourceforge.net/DTD/sodipodi-0.dtd"
   xmlns="http://www.w3.org/2000/svg"
   xmlns:svg="http://www.w3.org/2000/svg">
  <defs
     id="defs1" />
  <sodipodi:namedview
     id="namedview1"
     pagecolor="#ffffff"
     bordercolor="#000000"
     borderopacity="0.25"
     inkscape:showpageshadow="2"
     inkscape:pageopacity="0.0"
     inkscape:pagecheckerboard="0"
     inkscape:deskcolor="#d1d1d1"
     inkscape:zoom="0.48579968"
     inkscape:cx="847.05697"
     inkscape:cy="600.04157"
     inkscape:window-width="1920"
     inkscape:window-height="1009"
     inkscape:window-x="-8"
     inkscape:window-y="-8"
     inkscape:window-maximized="1"
     inkscape:current-layer="svg1" />
  <path
     d="m 1949.9611,382.37774 v 1.64143 l -14.7729,136.23897 q 0,11.49004 -11.4901,11.49004 h -54.1672 q -3.2829,1.64144 -6.5658,4.10359 -3.2829,2.46215 -6.5657,5.74502 l -8.2072,8.20717 q -3.2829,3.28285 -9.8486,3.28285 h -292.1752 l 50.8845,256.06361 41.0358,221.59358 q 0,6.5656 -3.2828,9.8486 l -31.1873,27.9043 v 36.1115 h -246.215 l -24.6215,-39.3943 -22.9801,-3.283 q -6.5657,0 -8.2071,-4.9242 l -18.0558,-27.9044 v -11.49 l 6.5658,-9.8486 q 3.2828,-3.2829 4.9242,-7.3865 1.6414,-4.10359 3.2829,-5.74499 0,-1.6414 -2.4622,-22.15936 -2.4621,-20.51791 -4.9243,-43.49798 -2.4621,-22.98006 -4.9243,-41.85655 l -2.4621,-18.87648 -22.9801,-108.33461 -4.1035,-13.95219 q -4.1036,-13.95218 -9.028,-31.18723 -4.9242,-17.23505 -9.8486,-32.00795 -4.9242,-14.7729 -4.9242,-19.69721 -4.9244,-1.64144 -11.4901,-2.46216 -6.5658,-0.8207 -9.8486,-4.10357 h -1.6414 l -129.6732,3.28287 H 961.8181 q -9.84859,-3.28287 -13.95219,-3.28287 -4.10358,0 -7.38645,-3.28287 -13.13146,-14.7729 -25.44221,-35.29082 -12.31075,-20.51791 -21.33863,-41.03584 -9.02789,-20.51791 -15.59363,-37.75296 -6.56572,-17.23505 -8.20716,-25.44221 H 494.00958 q 31.18723,4.9243 50.06371,18.87648 18.87649,13.95219 20.51792,13.95219 3.28286,1.64142 3.28286,8.20716 V 950.3137 q 0,4.9243 -4.92429,9.84861 l -142.80471,75.50589 q -1.64143,0 -1.64143,0.8208 0,0.8206 -3.28287,0.8206 h -29.5458 q -13.13146,0 -13.13146,-13.1314 V 556.36968 q 0,-3.28287 4.92429,-8.20717 18.05577,-14.77289 33.64938,-22.98006 15.59363,-8.20716 32.00795,-11.49003 H 315.09334 q -41.03585,0 -55.80874,18.05576 -6.56574,8.20717 -8.20717,15.59361 -1.64144,7.38646 -1.64144,12.31076 v 6.56573 q 0,3.28287 -1.64143,4.92431 -4.9243,4.9243 -9.84861,4.9243 h -29.5458 q -4.92429,0 -7.38644,-3.28287 -2.46215,-3.28287 -2.46215,-6.56574 v -73.8645 l 27.90437,-70.58164 H 21.27674 l -3.282868,-3.28287 Q 9.7867055,410.2821 2.4002537,389.76419 -4.9861965,369.24627 13.069571,346.26621 4.8624039,334.77617 1.5795372,315.89968 -1.7033296,297.02319 14.711005,275.68456 l 1.641433,-4.9243 H 283.90609 L 298.679,233.0073 q 0,-8.20717 9.8486,-8.20717 h 70.58163 q 1.64144,-1.64143 10.66932,-4.9243 9.02789,-3.28287 17.23505,-6.56574 l 22.98006,-9.84859 q 3.28287,-3.28287 4.9243,-3.28287 h 55.80875 v -22.98006 h 86.99597 v 22.98006 h 44.31871 v -22.98006 h 88.63739 v 22.98006 h 44.31871 v -22.98006 h 86.99598 v 22.98006 h 45.96013 v -22.98006 h 86.99597 v 22.98006 h 44.31873 v -22.98006 h 85.3546 v 22.98006 h 44.3186 v -22.98006 h 88.6374 v 22.98006 h 44.3188 v -22.98006 h 86.9959 v 22.98006 h 34.4701 v -29.5458 l 64.0159,-27.90437 h 27.9044 q 1.6414,-3.28287 6.5657,-11.49004 4.9243,-8.20716 9.8487,-18.05576 6.5656,-11.49005 11.49,-26.262947 h 119.8247 v 60.733047 q -9.8486,4.9243 -18.0558,11.49003 -8.2072,4.9243 -13.9523,9.8486 -5.745,4.92431 -9.0278,6.56574 v 24.6215 h 27.9044 v -22.98006 h 86.9959 v 22.98006 h 32.8287 v -22.98006 h 86.9959 v 26.26293 l 1.6415,3.28287 q 1.6414,3.28286 4.9243,6.56572 4.9243,4.9243 8.2071,11.49004 h 36.1116 q 13.1315,0 13.1315,11.49004 v 24.6215 h 14.7729 q 11.4901,0 11.4901,8.20715 l 22.98,109.97606 z M 546.53544,559.65255 q -6.56572,-4.9243 -21.33863,-13.13146 -14.7729,-8.20717 -35.29082,-11.49004 -20.51791,-3.28287 -44.3187,0.82072 -23.80079,4.10358 -48.42229,25.44221 v 453.03562 h 14.7729 q 1.64143,-1.6415 22.15935,-11.49 20.51793,-9.84859 43.498,-22.15939 22.98006,-12.31075 43.49798,-22.98006 20.51791,-10.66932 25.44221,-13.95218 z m 1288.52526,-29.5458 1.6414,-1.64144 q 9.8487,-50.88444 10.6693,-100.12743 0.8208,-49.243 -1.6414,-89.45812 -2.4621,-40.21513 -6.5658,-67.29878 -4.1035,-27.08365 -4.1035,-35.29081 -3.2828,-3.28287 -5.7451,-6.56574 -2.4621,-3.28287 -5.7449,-4.9243 h -589.2746 l -37.753,75.50593 v 3.28287 l -27.9044,54.16731 q -6.5657,9.8486 -11.4901,21.33864 -3.2828,9.84859 -6.5657,21.33863 -3.2827,11.49003 -3.2827,24.6215 0,18.05576 2.4621,36.93225 2.4621,18.87648 5.7449,28.72508 v 1.64144 h 3.2829 l 59.0917,34.4701 q 8.2071,3.28287 4.9242,13.13147 h 219.9521 q 3.2829,-8.20717 9.8486,-8.20717 h 75.506 q 1.6414,0 1.6414,-1.64143 0,-1.64144 1.6414,-1.64144 4.9244,0 6.5658,3.28287 h 297.0994 z m -262.6293,520.33435 q 1.6414,-82.07164 -9.0279,-163.32258 -10.6693,-81.25096 -25.4422,-150.19116 -14.7729,-68.9402 -29.5459,-117.36249 -14.7729,-48.42228 -19.6971,-66.47806 h -27.9045 q 0,6.56574 -8.2071,6.56574 h -170.709 q 1.6414,16.41434 7.3865,63.19518 5.7449,46.78086 17.235,113.25892 11.49,66.47804 29.5458,146.90829 18.0557,80.43023 44.3187,164.14336 3.2829,3.2828 4.9243,3.2828 z M 1144.0172,490.71234 q -3.2829,-11.49003 -4.9242,-29.5458 -1.6414,-18.05577 -1.6414,-36.11153 0,-22.98007 6.5656,-41.03584 6.5657,-18.05576 11.49,-26.26293 H 338.0734 l 3.28287,-4.92431 16.41433,-55.80874 h -8.20717 q -3.28287,8.20717 -11.49003,32.00795 -8.20717,23.80079 -16.41434,51.70516 -9.84859,31.18724 -22.98006,68.94021 v 42.67727 q 6.56574,-1.64144 16.41434,-1.64144 z M 295.39613,297.02319 q -8.20717,24.62151 -19.69721,54.16732 -11.49003,29.54579 -22.15934,58.27089 -10.66932,28.72507 -19.69721,50.88443 -9.02788,22.15934 -12.31074,32.00795 h 14.77289 l 75.50595,-195.33059 z m -52.52587,195.33059 h 47.60157 v -42.67727 l 1.64143,-1.64144 50.88445,-151.01188 H 316.73476 Z M 385.67497,247.78019 q -3.28287,6.56574 -6.56574,16.41434 -3.28287,9.8486 -6.56572,21.33863 h 819.07519 q 11.4901,-24.62149 19.6973,-37.75297 z M 1162.073,347.90764 q 3.2828,-6.56573 9.0279,-18.8765 5.745,-12.31074 12.3107,-25.44221 H 365.97777 q -4.9243,16.41434 -7.38645,27.90436 -2.46215,11.49005 -4.10359,16.41435 z m -31.1872,165.78478 q 1.6413,6.56572 1.6413,24.6215 0,13.13146 -2.4621,27.08365 -2.462,13.95218 -13.9521,27.08365 v 3.28286 q 3.2829,0 9.8486,-4.9243 l 10.6693,-21.33863 q 9.028,-18.05577 10.6694,-55.80873 z m -183.8406,0 q 0,3.28287 -0.82072,5.74502 -0.82072,2.46214 -0.82072,5.74501 0,16.41434 4.1036,38.57368 4.10358,22.15935 20.51791,46.78085 h 178.91623 q 11.4901,0 18.0557,-4.9243 24.6215,-11.49003 36.1116,-52.52587 v 1.64144 -9.8486 q -4.9243,-3.28286 -18.8764,-11.49003 -13.9522,-8.20717 -25.4423,-14.7729 -3.2829,39.39439 -12.3107,59.09159 -9.0278,19.69721 -12.3107,19.69721 v 1.64143 q -8.2072,8.20716 -14.7729,7.38645 -6.5657,-0.82072 -9.8487,-2.46216 -4.9242,-1.64142 -4.9242,-11.49002 v -1.64144 q 0,-1.64143 1.6414,-1.64143 14.7729,-22.98007 15.5936,-44.3187 0.8208,-21.33864 -2.4621,-31.18723 z m 169.0677,82.07166 -4.9243,1.64144 h 1.6415 q 1.6414,-1.64144 3.2828,-1.64144 z m -9.8486,-8.20716 h 4.9243 z m 658.2148,-387.37829 h 57.4502 v -8.20717 h -57.4502 z m -119.8246,0 h 57.4502 v -8.20717 h -57.4502 z m -226.5178,0 h 169.0676 v -34.47011 q 9.8486,-4.9243 18.0557,-11.49003 8.2072,-4.9243 13.9522,-8.20717 5.7451,-3.28286 9.0279,-4.9243 v -39.39441 h -95.2032 q -1.6414,3.28287 -5.7449,12.31076 -4.1036,9.02789 -9.028,18.87649 -6.5656,11.49003 -11.49,24.6215 h -37.753 q 0,1.64143 -7.3864,4.9243 -7.3864,3.28286 -16.4143,6.56573 -9.028,3.28288 -17.2352,7.38646 -8.207,4.10358 -9.8484,5.74502 z m -121.4662,0 h 57.4502 v -8.20717 h -57.4502 z m -131.3147,0 h 57.4502 v -8.20717 h -57.4502 z m -131.3146,0 h 55.8087 v -8.20717 h -55.8087 z m -131.3147,0 h 57.45018 v -8.20717 H 902.7265 Z m -132.95612,0 h 57.45018 v -8.20717 h -57.45018 z m -132.95609,0 h 59.0916 v -8.20717 h -59.0916 z m -131.31468,0 h 57.45017 v -8.20717 h -57.45017 z m -68.94021,24.6215 q -1.64144,0 -13.13146,4.9243 l -22.98008,9.84859 h 815.79254 q 3.2828,-11.49002 6.5656,-14.77289 z m -121.46606,22.98006 q 0,1.64144 -4.10359,13.13148 -4.10358,11.49002 -10.66932,29.5458 h 59.0916 v -4.92431 h 3.28287 l 9.84861,-37.75297 z M 27.842473,290.45747 q -9.848601,13.13146 -9.848601,21.33863 0,8.20717 4.103584,13.95219 4.103584,5.745 7.386451,9.02788 H 257.64316 l 16.41433,-44.3187 z M 231.38023,403.71638 249.43599,356.1148 H 27.842473 q -9.848601,13.13147 -9.848601,22.98008 0,8.20716 4.103584,14.77289 4.103584,6.56574 7.386451,9.84861 z m 9.84859,113.25891 q 9.84861,-9.84861 22.98007,-14.77291 h -44.3187 v 50.88443 h 8.20717 q 0,-6.56572 2.46215,-17.23504 2.46214,-10.66932 10.66931,-18.87648 z m 718.94786,123.10749 q 0,1.64143 1.64142,1.64143 z m 347.98392,384.09542 q 3.2829,3.2829 4.9243,8.2072 1.6415,4.9242 4.9243,8.2072 4.9244,0 24.6215,2.4621 l 32.8287,4.1036 q -24.6215,-83.71313 -42.6773,-164.14336 -18.0557,-80.43025 -29.5458,-147.72901 -11.49,-67.29877 -18.0558,-114.07963 -6.5657,-46.78085 -8.2071,-61.55375 h -60.733 q -6.5658,22.98006 -17.2351,37.75297 -10.6694,14.77289 -23.8009,22.98006 -13.1314,8.20717 -22.98,7.38646 -9.8487,-0.82072 -13.1314,-2.46215 H 961.8181 l -1.64142,-1.64144 q -21.33865,-32.82867 -25.44224,-63.19518 -4.10357,-30.36652 -2.46215,-46.78085 H 892.8779 q 3.28287,9.84859 9.8486,25.44221 6.56573,15.59362 14.7729,32.82867 8.20717,17.23505 18.05576,34.4701 9.8486,17.23505 19.69722,28.72508 h 249.49792 q 3.2829,-1.64142 8.2071,-1.64142 l 31.1873,11.49002 q 4.9243,0 8.2072,6.56574 l 29.5458,101.76887 22.98,111.61748 v 1.64143 l 14.7729,128.03181 v 6.56569 q -3.2828,3.2829 -4.9242,8.2072 -3.2829,3.2828 -4.1036,7.3864 -0.8208,4.1036 -2.4622,7.3865 z m 280.6851,65.6573 v -18.0557 h -201.8963 l -36.1115,-4.9243 q 11.49,19.6971 14.7729,22.98 z m -65.6573,-536.74869 h -29.5459 q 4.9243,18.05578 19.6973,68.11949 14.7729,50.06373 28.7251,118.18321 13.9521,68.11948 24.6214,149.37044 10.6694,81.25095 9.028,161.68115 h 16.4143 q 3.2829,-3.2828 10.6692,-9.8485 7.3866,-6.5658 12.3108,-11.4901 -1.6414,-3.2829 -6.5656,-38.57369 -4.9244,-35.29081 -13.1315,-74.68521 -8.2072,-45.96013 -19.6972,-103.41031 z m 318.4381,-27.90436 q 3.2828,-1.64144 9.8485,-8.20716 l 4.9244,-4.9243 q 4.9243,-4.92431 6.5657,-4.92431 8.2072,-45.96014 9.8486,-87.81669 1.6414,-41.85655 0,-76.32665 -1.6414,-34.47011 -4.9243,-59.09161 -3.2829,-24.6215 -4.9243,-36.11154 h -14.7729 q -4.9243,0 -9.8486,-4.9243 1.6414,13.13147 5.7451,41.85656 4.1035,28.72508 6.5656,66.47806 2.4623,37.75296 0.8207,82.89238 -1.6414,45.13942 -9.8485,91.09956 z m 72.2231,-18.05577 q 0,-6.56573 2.4621,-26.26294 2.4622,-19.6972 4.9242,-41.03584 2.4622,-21.33863 4.1037,-38.57367 l 1.6415,-17.23506 q 0,-1.64143 -2.4622,-15.59361 -2.4622,-13.95219 -6.5658,-31.18724 -4.1035,-17.23505 -7.3864,-33.64939 -3.2829,-16.41433 -3.2829,-21.33863 h -19.6972 q -9.8485,0 -9.8485,-11.49004 v -22.98007 h -13.1316 q 1.6415,11.49004 5.745,36.11154 4.1036,24.6215 6.5658,59.09161 2.4622,34.4701 0.8208,76.32665 -1.6416,41.85655 -11.4901,87.81669 z m -1478.93164,88.6374 q 0,-14.7729 9.84861,-23.80078 9.84861,-9.02788 24.62151,-9.02788 13.13147,0 22.15934,9.02788 9.02789,9.02788 9.02789,23.80078 0,13.13147 -9.02789,23.80079 -9.02787,10.66932 -22.15934,10.66932 -14.7729,0 -24.62151,-10.66932 -9.84861,-10.66932 -9.84861,-23.80079 z m 34.47012,-21.33863 q -21.33864,0 -21.33864,21.33863 0,21.33864 21.33864,21.33864 21.33863,0 21.33863,-21.33864 0,-21.33863 -21.33863,-21.33863 z M 1789.1006,257.6288 q 13.1314,0 22.98,9.8486 9.8487,9.84859 9.8487,22.98007 0,14.77289 -9.8487,24.62149 -9.8486,9.84861 -22.98,9.84861 -13.1315,0 -22.9801,-9.84861 -9.8486,-9.8486 -9.8486,-24.62149 0,-13.13148 9.8486,-22.98007 9.8486,-9.8486 22.9801,-9.8486 z m 0,54.1673 q 21.3386,0 21.3386,-21.33863 0,-21.33865 -21.3386,-21.33865 -21.3387,0 -21.3387,21.33865 0,21.33863 21.3387,21.33863 z m 9.8486,-21.33863 q 0,9.84859 -9.8486,9.84859 -9.8487,0 -9.8487,-9.84859 0,-8.20717 9.8487,-8.20717 9.8486,0 9.8486,8.20717 z m -9.8486,149.37043 q 13.1314,0 22.98,9.84861 9.8487,9.8486 9.8487,24.62149 0,13.13148 -9.8487,22.15935 -9.8486,9.0279 -22.98,9.0279 -13.1315,0 -22.9801,-9.0279 -9.8486,-9.02787 -9.8486,-22.15935 0,-14.77289 9.8486,-24.62149 9.8486,-9.84861 22.9801,-9.84861 z m 0,55.80874 q 21.3386,0 21.3386,-21.33864 0,-21.33863 -21.3386,-21.33863 -21.3387,0 -21.3387,21.33863 0,21.33864 21.3387,21.33864 z m 9.8486,-21.33864 q 0,3.28287 -3.2829,6.56574 -3.2829,3.28287 -6.5657,3.28287 -3.2829,0 -6.5657,-3.28287 -3.283,-3.28287 -3.283,-6.56574 0,-11.49002 9.8487,-11.49002 9.8486,0 9.8486,11.49002 z M 1493.6425,277.32599 v -8.20717 q 0,-18.05576 18.0559,-18.05576 h 49.243 q 19.6971,0 19.6971,18.05576 v 8.20717 q 0,6.56574 -5.745,13.13148 -5.745,6.56572 -13.9521,6.56572 h -49.243 q -8.2072,0 -13.1316,-6.56572 -4.9243,-6.56574 -4.9243,-13.13148 z m -54.1673,14.77291 q 0,-9.8486 13.1315,-9.8486 11.4901,0 11.4901,9.8486 0,11.49003 -11.4901,11.49003 -13.1315,0 -13.1315,-11.49003 z m 170.7092,0 q 0,-9.8486 11.49,-9.8486 9.8486,0 9.8486,9.8486 0,11.49003 -9.8486,11.49003 -11.49,0 -11.49,-11.49003 z M 554.74261,400.43351 q 0,4.9243 -4.10358,10.66931 -4.10359,5.74502 -10.66931,5.74502 h -95.20315 q -6.56574,0 -10.66932,-5.74502 -4.10359,-5.74501 -4.10359,-10.66931 0,-14.77291 14.77291,-14.77291 h 95.20315 q 14.77289,0 14.77289,14.77291 z m 144.44615,0 q 0,4.9243 -4.10359,10.66931 -4.10358,5.74502 -10.66932,5.74502 h -95.20314 q -4.9243,0 -10.66932,-5.74502 -5.74502,-5.74501 -5.74502,-10.66931 0,-6.56574 5.74502,-10.66932 5.74502,-4.10359 10.66932,-4.10359 h 95.20314 q 14.77291,0 14.77291,14.77291 z m 142.80471,0 q 0,4.9243 -4.10359,10.66931 -4.10358,5.74502 -10.66932,5.74502 h -93.5617 q -6.56574,0 -10.66932,-5.74502 -4.10359,-5.74501 -4.10359,-10.66931 0,-14.77291 14.77291,-14.77291 h 93.5617 q 14.77291,0 14.77291,14.77291 z M 1482.1525,183.7643 q 0,9.8486 -9.8486,9.8486 -11.4901,0 -11.4901,-9.8486 0,-11.49003 11.4901,-11.49003 9.8486,0 9.8486,11.49003 z m 49.243,0 q 0,9.8486 -9.8486,9.8486 -9.8485,0 -9.8485,-9.8486 0,-11.49003 9.8485,-11.49003 9.8486,0 9.8486,11.49003 z m 68.9403,-47.60158 h -49.243 v -13.13146 h 49.243 z m 144.446,192.04771 -1.6414,3.28286 h -517.0515 l -1.6414,-3.28286 1.6414,-1.64144 h 517.0515 q 1.6414,0 1.6414,1.64144 z M 433.27653,656.49712 V 955.238 q 0,4.92431 -4.92429,4.92431 -6.56574,0 -6.56574,-4.92431 V 656.49712 q 0,-4.9243 6.56574,-4.9243 4.92429,0 4.92429,4.9243 z m 29.54581,0 v 280.68512 q 0,6.56573 -4.9243,6.56573 -6.56574,0 -6.56574,-6.56573 V 656.49712 q 0,-4.9243 6.56574,-4.9243 4.9243,0 4.9243,4.9243 z m 29.5458,0 v 265.91221 q 0,6.56574 -4.9243,6.56574 -4.92429,0 -4.92429,-6.56574 V 656.49712 q 0,-4.9243 4.92429,-4.9243 4.9243,0 4.9243,4.9243 z m 19.69721,251.13932 V 656.49712 q 0,-4.9243 6.56572,-4.9243 3.28287,0 3.28287,4.9243 v 251.13932 q 0,4.92429 -3.28287,4.92429 -6.56572,0 -6.56572,-4.92429 z m 1232.71645,-563.01166 -1.6414,3.28286 h -517.0515 l -1.6414,-3.28286 1.6414,-1.64144 h 517.0515 q 1.6414,0 1.6414,1.64144 z m 0,16.41432 -1.6414,3.28287 h -517.0515 l -1.6414,-3.28287 1.6414,-1.64143 h 517.0515 q 1.6414,0 1.6414,1.64143 z m 0,16.41434 -1.6414,3.28286 h -517.0515 l -1.6414,-3.28286 1.6414,-1.64143 h 517.0515 q 1.6414,0 1.6414,1.64143 z m 0,16.41433 -1.6414,3.28287 h -517.0515 l -1.6414,-3.28287 1.6414,-1.64143 h 517.0515 q 1.6414,0 1.6414,1.64143 z m 0,16.41433 -1.6414,3.28287 h -517.0515 l -1.6414,-3.28287 1.6414,-1.64142 h 517.0515 q 1.6414,0 1.6414,1.64142 z m 0,16.41434 -1.6414,3.28287 h -517.0515 l -1.6414,-3.28287 1.6414,-1.64143 h 517.0515 q 1.6414,0 1.6414,1.64143 z"
     id="path1"
     style="stroke-width:1.64143" />
</svg>
